<?xml version="1.0" encoding="utf-8" standalone="no"?>
<!DOCTYPE svg PUBLIC "-//W3C//DTD SVG 1.1//EN"
  "http://www.w3.org/Graphics/SVG/1.1/DTD/svg11.dtd">
<svg xmlns:xlink="http://www.w3.org/1999/xlink" width="1152pt" height="648pt" viewBox="0 0 1152 648" xmlns="http://www.w3.org/2000/svg" version="1.1">
 <metadata>
  <rdf:RDF xmlns:dc="http://purl.org/dc/elements/1.1/" xmlns:cc="http://creativecommons.org/ns#" xmlns:rdf="http://www.w3.org/1999/02/22-rdf-syntax-ns#">
   <cc:Work>
    <dc:type rdf:resource="http://purl.org/dc/dcmitype/StillImage"/>
    <dc:date>2025-03-11T16:18:42.297699</dc:date>
    <dc:format>image/svg+xml</dc:format>
    <dc:creator>
     <cc:Agent>
      <dc:title>Matplotlib v3.9.3, https://matplotlib.org/</dc:title>
     </cc:Agent>
    </dc:creator>
   </cc:Work>
  </rdf:RDF>
 </metadata>
 <defs>
  <style type="text/css">*{stroke-linejoin: round; stroke-linecap: butt}</style>
 </defs>
 <g id="figure_1">
  <g id="patch_1">
   <path d="M 0 648 
L 1152 648 
L 1152 0 
L 0 0 
z
" style="fill: #ffffff"/>
  </g>
  <g id="axes_1">
   <g id="patch_2">
    <path d="M 144 576.72 
L 1036.8 576.72 
L 1036.8 77.76 
L 144 77.76 
z
" style="fill: #ffffff"/>
   </g>
   <g id="matplotlib.axis_1">
    <g id="xtick_1">
     <g id="line2d_1">
      <defs>
       <path id="mde1690810a" d="M 0 0 
L 0 3.5 
" style="stroke: #000000; stroke-width: 0.8"/>
      </defs>
      <g>
       <use xlink:href="#mde1690810a" x="184.581818" y="576.72" style="stroke: #000000; stroke-width: 0.8"/>
      </g>
     </g>
     <g id="text_1">
      <!-- 0 -->
      <g transform="translate(178.855568 597.397187) scale(0.18 -0.18)">
       <defs>
        <path id="DejaVuSans-30" d="M 2034 4250 
Q 1547 4250 1301 3770 
Q 1056 3291 1056 2328 
Q 1056 1369 1301 889 
Q 1547 409 2034 409 
Q 2525 409 2770 889 
Q 3016 1369 3016 2328 
Q 3016 3291 2770 3770 
Q 2525 4250 2034 4250 
z
M 2034 4750 
Q 2819 4750 3233 4129 
Q 3647 3509 3647 2328 
Q 3647 1150 3233 529 
Q 2819 -91 2034 -91 
Q 1250 -91 836 529 
Q 422 1150 422 2328 
Q 422 3509 836 4129 
Q 1250 4750 2034 4750 
z
" transform="scale(0.015625)"/>
       </defs>
       <use xlink:href="#DejaVuSans-30"/>
      </g>
     </g>
    </g>
    <g id="xtick_2">
     <g id="line2d_2">
      <g>
       <use xlink:href="#mde1690810a" x="300.52987" y="576.72" style="stroke: #000000; stroke-width: 0.8"/>
      </g>
     </g>
     <g id="text_2">
      <!-- 2 -->
      <g transform="translate(294.80362 597.397187) scale(0.18 -0.18)">
       <defs>
        <path id="DejaVuSans-32" d="M 1228 531 
L 3431 531 
L 3431 0 
L 469 0 
L 469 531 
Q 828 903 1448 1529 
Q 2069 2156 2228 2338 
Q 2531 2678 2651 2914 
Q 2772 3150 2772 3378 
Q 2772 3750 2511 3984 
Q 2250 4219 1831 4219 
Q 1534 4219 1204 4116 
Q 875 4013 500 3803 
L 500 4441 
Q 881 4594 1212 4672 
Q 1544 4750 1819 4750 
Q 2544 4750 2975 4387 
Q 3406 4025 3406 3419 
Q 3406 3131 3298 2873 
Q 3191 2616 2906 2266 
Q 2828 2175 2409 1742 
Q 1991 1309 1228 531 
z
" transform="scale(0.015625)"/>
       </defs>
       <use xlink:href="#DejaVuSans-32"/>
      </g>
     </g>
    </g>
    <g id="xtick_3">
     <g id="line2d_3">
      <g>
       <use xlink:href="#mde1690810a" x="416.477922" y="576.72" style="stroke: #000000; stroke-width: 0.8"/>
      </g>
     </g>
     <g id="text_3">
      <!-- 4 -->
      <g transform="translate(410.751672 597.397187) scale(0.18 -0.18)">
       <defs>
        <path id="DejaVuSans-34" d="M 2419 4116 
L 825 1625 
L 2419 1625 
L 2419 4116 
z
M 2253 4666 
L 3047 4666 
L 3047 1625 
L 3713 1625 
L 3713 1100 
L 3047 1100 
L 3047 0 
L 2419 0 
L 2419 1100 
L 313 1100 
L 313 1709 
L 2253 4666 
z
" transform="scale(0.015625)"/>
       </defs>
       <use xlink:href="#DejaVuSans-34"/>
      </g>
     </g>
    </g>
    <g id="xtick_4">
     <g id="line2d_4">
      <g>
       <use xlink:href="#mde1690810a" x="532.425974" y="576.72" style="stroke: #000000; stroke-width: 0.8"/>
      </g>
     </g>
     <g id="text_4">
      <!-- 6 -->
      <g transform="translate(526.699724 597.397187) scale(0.18 -0.18)">
       <defs>
        <path id="DejaVuSans-36" d="M 2113 2584 
Q 1688 2584 1439 2293 
Q 1191 2003 1191 1497 
Q 1191 994 1439 701 
Q 1688 409 2113 409 
Q 2538 409 2786 701 
Q 3034 994 3034 1497 
Q 3034 2003 2786 2293 
Q 2538 2584 2113 2584 
z
M 3366 4563 
L 3366 3988 
Q 3128 4100 2886 4159 
Q 2644 4219 2406 4219 
Q 1781 4219 1451 3797 
Q 1122 3375 1075 2522 
Q 1259 2794 1537 2939 
Q 1816 3084 2150 3084 
Q 2853 3084 3261 2657 
Q 3669 2231 3669 1497 
Q 3669 778 3244 343 
Q 2819 -91 2113 -91 
Q 1303 -91 875 529 
Q 447 1150 447 2328 
Q 447 3434 972 4092 
Q 1497 4750 2381 4750 
Q 2619 4750 2861 4703 
Q 3103 4656 3366 4563 
z
" transform="scale(0.015625)"/>
       </defs>
       <use xlink:href="#DejaVuSans-36"/>
      </g>
     </g>
    </g>
    <g id="xtick_5">
     <g id="line2d_5">
      <g>
       <use xlink:href="#mde1690810a" x="648.374026" y="576.72" style="stroke: #000000; stroke-width: 0.8"/>
      </g>
     </g>
     <g id="text_5">
      <!-- 8 -->
      <g transform="translate(642.647776 597.397187) scale(0.18 -0.18)">
       <defs>
        <path id="DejaVuSans-38" d="M 2034 2216 
Q 1584 2216 1326 1975 
Q 1069 1734 1069 1313 
Q 1069 891 1326 650 
Q 1584 409 2034 409 
Q 2484 409 2743 651 
Q 3003 894 3003 1313 
Q 3003 1734 2745 1975 
Q 2488 2216 2034 2216 
z
M 1403 2484 
Q 997 2584 770 2862 
Q 544 3141 544 3541 
Q 544 4100 942 4425 
Q 1341 4750 2034 4750 
Q 2731 4750 3128 4425 
Q 3525 4100 3525 3541 
Q 3525 3141 3298 2862 
Q 3072 2584 2669 2484 
Q 3125 2378 3379 2068 
Q 3634 1759 3634 1313 
Q 3634 634 3220 271 
Q 2806 -91 2034 -91 
Q 1263 -91 848 271 
Q 434 634 434 1313 
Q 434 1759 690 2068 
Q 947 2378 1403 2484 
z
M 1172 3481 
Q 1172 3119 1398 2916 
Q 1625 2713 2034 2713 
Q 2441 2713 2670 2916 
Q 2900 3119 2900 3481 
Q 2900 3844 2670 4047 
Q 2441 4250 2034 4250 
Q 1625 4250 1398 4047 
Q 1172 3844 1172 3481 
z
" transform="scale(0.015625)"/>
       </defs>
       <use xlink:href="#DejaVuSans-38"/>
      </g>
     </g>
    </g>
    <g id="xtick_6">
     <g id="line2d_6">
      <g>
       <use xlink:href="#mde1690810a" x="764.322078" y="576.72" style="stroke: #000000; stroke-width: 0.8"/>
      </g>
     </g>
     <g id="text_6">
      <!-- 10 -->
      <g transform="translate(752.869578 597.397187) scale(0.18 -0.18)">
       <defs>
        <path id="DejaVuSans-31" d="M 794 531 
L 1825 531 
L 1825 4091 
L 703 3866 
L 703 4441 
L 1819 4666 
L 2450 4666 
L 2450 531 
L 3481 531 
L 3481 0 
L 794 0 
L 794 531 
z
" transform="scale(0.015625)"/>
       </defs>
       <use xlink:href="#DejaVuSans-31"/>
       <use xlink:href="#DejaVuSans-30" x="63.623047"/>
      </g>
     </g>
    </g>
    <g id="xtick_7">
     <g id="line2d_7">
      <g>
       <use xlink:href="#mde1690810a" x="880.27013" y="576.72" style="stroke: #000000; stroke-width: 0.8"/>
      </g>
     </g>
     <g id="text_7">
      <!-- 12 -->
      <g transform="translate(868.81763 597.397187) scale(0.18 -0.18)">
       <use xlink:href="#DejaVuSans-31"/>
       <use xlink:href="#DejaVuSans-32" x="63.623047"/>
      </g>
     </g>
    </g>
    <g id="xtick_8">
     <g id="line2d_8">
      <g>
       <use xlink:href="#mde1690810a" x="996.218182" y="576.72" style="stroke: #000000; stroke-width: 0.8"/>
      </g>
     </g>
     <g id="text_8">
      <!-- 14 -->
      <g transform="translate(984.765682 597.397187) scale(0.18 -0.18)">
       <use xlink:href="#DejaVuSans-31"/>
       <use xlink:href="#DejaVuSans-34" x="63.623047"/>
      </g>
     </g>
    </g>
    <g id="text_9">
     <!-- pH -->
     <g transform="translate(576.53125 620.3375) scale(0.2 -0.2)">
      <defs>
       <path id="DejaVuSans-70" d="M 1159 525 
L 1159 -1331 
L 581 -1331 
L 581 3500 
L 1159 3500 
L 1159 2969 
Q 1341 3281 1617 3432 
Q 1894 3584 2278 3584 
Q 2916 3584 3314 3078 
Q 3713 2572 3713 1747 
Q 3713 922 3314 415 
Q 2916 -91 2278 -91 
Q 1894 -91 1617 61 
Q 1341 213 1159 525 
z
M 3116 1747 
Q 3116 2381 2855 2742 
Q 2594 3103 2138 3103 
Q 1681 3103 1420 2742 
Q 1159 2381 1159 1747 
Q 1159 1113 1420 752 
Q 1681 391 2138 391 
Q 2594 391 2855 752 
Q 3116 1113 3116 1747 
z
" transform="scale(0.015625)"/>
       <path id="DejaVuSans-48" d="M 628 4666 
L 1259 4666 
L 1259 2753 
L 3553 2753 
L 3553 4666 
L 4184 4666 
L 4184 0 
L 3553 0 
L 3553 2222 
L 1259 2222 
L 1259 0 
L 628 0 
L 628 4666 
z
" transform="scale(0.015625)"/>
      </defs>
      <use xlink:href="#DejaVuSans-70"/>
      <use xlink:href="#DejaVuSans-48" x="63.476562"/>
     </g>
    </g>
   </g>
   <g id="matplotlib.axis_2">
    <g id="ytick_1">
     <g id="line2d_9">
      <defs>
       <path id="m7180c73416" d="M 0 0 
L -3.5 0 
" style="stroke: #000000; stroke-width: 0.8"/>
      </defs>
      <g>
       <use xlink:href="#m7180c73416" x="144" y="554.04" style="stroke: #000000; stroke-width: 0.8"/>
      </g>
     </g>
     <g id="text_10">
      <!-- 0 -->
      <g transform="translate(125.5475 560.878594) scale(0.18 -0.18)">
       <use xlink:href="#DejaVuSans-30"/>
      </g>
     </g>
    </g>
    <g id="ytick_2">
     <g id="line2d_10">
      <g>
       <use xlink:href="#m7180c73416" x="144" y="463.320002" style="stroke: #000000; stroke-width: 0.8"/>
      </g>
     </g>
     <g id="text_11">
      <!-- 200 -->
      <g transform="translate(102.6425 470.158595) scale(0.18 -0.18)">
       <use xlink:href="#DejaVuSans-32"/>
       <use xlink:href="#DejaVuSans-30" x="63.623047"/>
       <use xlink:href="#DejaVuSans-30" x="127.246094"/>
      </g>
     </g>
    </g>
    <g id="ytick_3">
     <g id="line2d_11">
      <g>
       <use xlink:href="#m7180c73416" x="144" y="372.600003" style="stroke: #000000; stroke-width: 0.8"/>
      </g>
     </g>
     <g id="text_12">
      <!-- 400 -->
      <g transform="translate(102.6425 379.438597) scale(0.18 -0.18)">
       <use xlink:href="#DejaVuSans-34"/>
       <use xlink:href="#DejaVuSans-30" x="63.623047"/>
       <use xlink:href="#DejaVuSans-30" x="127.246094"/>
      </g>
     </g>
    </g>
    <g id="ytick_4">
     <g id="line2d_12">
      <g>
       <use xlink:href="#m7180c73416" x="144" y="281.880005" style="stroke: #000000; stroke-width: 0.8"/>
      </g>
     </g>
     <g id="text_13">
      <!-- 600 -->
      <g transform="translate(102.6425 288.718599) scale(0.18 -0.18)">
       <use xlink:href="#DejaVuSans-36"/>
       <use xlink:href="#DejaVuSans-30" x="63.623047"/>
       <use xlink:href="#DejaVuSans-30" x="127.246094"/>
      </g>
     </g>
    </g>
    <g id="ytick_5">
     <g id="line2d_13">
      <g>
       <use xlink:href="#m7180c73416" x="144" y="191.160007" style="stroke: #000000; stroke-width: 0.8"/>
      </g>
     </g>
     <g id="text_14">
      <!-- 800 -->
      <g transform="translate(102.6425 197.9986) scale(0.18 -0.18)">
       <use xlink:href="#DejaVuSans-38"/>
       <use xlink:href="#DejaVuSans-30" x="63.623047"/>
       <use xlink:href="#DejaVuSans-30" x="127.246094"/>
      </g>
     </g>
    </g>
    <g id="ytick_6">
     <g id="line2d_14">
      <g>
       <use xlink:href="#m7180c73416" x="144" y="100.440008" style="stroke: #000000; stroke-width: 0.8"/>
      </g>
     </g>
     <g id="text_15">
      <!-- 1000 -->
      <g transform="translate(91.19 107.278602) scale(0.18 -0.18)">
       <use xlink:href="#DejaVuSans-31"/>
       <use xlink:href="#DejaVuSans-30" x="63.623047"/>
       <use xlink:href="#DejaVuSans-30" x="127.246094"/>
       <use xlink:href="#DejaVuSans-30" x="190.869141"/>
      </g>
     </g>
    </g>
    <g id="text_16">
     <!-- Concentration (umol) -->
     <g transform="translate(83.030625 433.938438) rotate(-90) scale(0.2 -0.2)">
      <defs>
       <path id="DejaVuSans-43" d="M 4122 4306 
L 4122 3641 
Q 3803 3938 3442 4084 
Q 3081 4231 2675 4231 
Q 1875 4231 1450 3742 
Q 1025 3253 1025 2328 
Q 1025 1406 1450 917 
Q 1875 428 2675 428 
Q 3081 428 3442 575 
Q 3803 722 4122 1019 
L 4122 359 
Q 3791 134 3420 21 
Q 3050 -91 2638 -91 
Q 1578 -91 968 557 
Q 359 1206 359 2328 
Q 359 3453 968 4101 
Q 1578 4750 2638 4750 
Q 3056 4750 3426 4639 
Q 3797 4528 4122 4306 
z
" transform="scale(0.015625)"/>
       <path id="DejaVuSans-6f" d="M 1959 3097 
Q 1497 3097 1228 2736 
Q 959 2375 959 1747 
Q 959 1119 1226 758 
Q 1494 397 1959 397 
Q 2419 397 2687 759 
Q 2956 1122 2956 1747 
Q 2956 2369 2687 2733 
Q 2419 3097 1959 3097 
z
M 1959 3584 
Q 2709 3584 3137 3096 
Q 3566 2609 3566 1747 
Q 3566 888 3137 398 
Q 2709 -91 1959 -91 
Q 1206 -91 779 398 
Q 353 888 353 1747 
Q 353 2609 779 3096 
Q 1206 3584 1959 3584 
z
" transform="scale(0.015625)"/>
       <path id="DejaVuSans-6e" d="M 3513 2113 
L 3513 0 
L 2938 0 
L 2938 2094 
Q 2938 2591 2744 2837 
Q 2550 3084 2163 3084 
Q 1697 3084 1428 2787 
Q 1159 2491 1159 1978 
L 1159 0 
L 581 0 
L 581 3500 
L 1159 3500 
L 1159 2956 
Q 1366 3272 1645 3428 
Q 1925 3584 2291 3584 
Q 2894 3584 3203 3211 
Q 3513 2838 3513 2113 
z
" transform="scale(0.015625)"/>
       <path id="DejaVuSans-63" d="M 3122 3366 
L 3122 2828 
Q 2878 2963 2633 3030 
Q 2388 3097 2138 3097 
Q 1578 3097 1268 2742 
Q 959 2388 959 1747 
Q 959 1106 1268 751 
Q 1578 397 2138 397 
Q 2388 397 2633 464 
Q 2878 531 3122 666 
L 3122 134 
Q 2881 22 2623 -34 
Q 2366 -91 2075 -91 
Q 1284 -91 818 406 
Q 353 903 353 1747 
Q 353 2603 823 3093 
Q 1294 3584 2113 3584 
Q 2378 3584 2631 3529 
Q 2884 3475 3122 3366 
z
" transform="scale(0.015625)"/>
       <path id="DejaVuSans-65" d="M 3597 1894 
L 3597 1613 
L 953 1613 
Q 991 1019 1311 708 
Q 1631 397 2203 397 
Q 2534 397 2845 478 
Q 3156 559 3463 722 
L 3463 178 
Q 3153 47 2828 -22 
Q 2503 -91 2169 -91 
Q 1331 -91 842 396 
Q 353 884 353 1716 
Q 353 2575 817 3079 
Q 1281 3584 2069 3584 
Q 2775 3584 3186 3129 
Q 3597 2675 3597 1894 
z
M 3022 2063 
Q 3016 2534 2758 2815 
Q 2500 3097 2075 3097 
Q 1594 3097 1305 2825 
Q 1016 2553 972 2059 
L 3022 2063 
z
" transform="scale(0.015625)"/>
       <path id="DejaVuSans-74" d="M 1172 4494 
L 1172 3500 
L 2356 3500 
L 2356 3053 
L 1172 3053 
L 1172 1153 
Q 1172 725 1289 603 
Q 1406 481 1766 481 
L 2356 481 
L 2356 0 
L 1766 0 
Q 1100 0 847 248 
Q 594 497 594 1153 
L 594 3053 
L 172 3053 
L 172 3500 
L 594 3500 
L 594 4494 
L 1172 4494 
z
" transform="scale(0.015625)"/>
       <path id="DejaVuSans-72" d="M 2631 2963 
Q 2534 3019 2420 3045 
Q 2306 3072 2169 3072 
Q 1681 3072 1420 2755 
Q 1159 2438 1159 1844 
L 1159 0 
L 581 0 
L 581 3500 
L 1159 3500 
L 1159 2956 
Q 1341 3275 1631 3429 
Q 1922 3584 2338 3584 
Q 2397 3584 2469 3576 
Q 2541 3569 2628 3553 
L 2631 2963 
z
" transform="scale(0.015625)"/>
       <path id="DejaVuSans-61" d="M 2194 1759 
Q 1497 1759 1228 1600 
Q 959 1441 959 1056 
Q 959 750 1161 570 
Q 1363 391 1709 391 
Q 2188 391 2477 730 
Q 2766 1069 2766 1631 
L 2766 1759 
L 2194 1759 
z
M 3341 1997 
L 3341 0 
L 2766 0 
L 2766 531 
Q 2569 213 2275 61 
Q 1981 -91 1556 -91 
Q 1019 -91 701 211 
Q 384 513 384 1019 
Q 384 1609 779 1909 
Q 1175 2209 1959 2209 
L 2766 2209 
L 2766 2266 
Q 2766 2663 2505 2880 
Q 2244 3097 1772 3097 
Q 1472 3097 1187 3025 
Q 903 2953 641 2809 
L 641 3341 
Q 956 3463 1253 3523 
Q 1550 3584 1831 3584 
Q 2591 3584 2966 3190 
Q 3341 2797 3341 1997 
z
" transform="scale(0.015625)"/>
       <path id="DejaVuSans-69" d="M 603 3500 
L 1178 3500 
L 1178 0 
L 603 0 
L 603 3500 
z
M 603 4863 
L 1178 4863 
L 1178 4134 
L 603 4134 
L 603 4863 
z
" transform="scale(0.015625)"/>
       <path id="DejaVuSans-20" transform="scale(0.015625)"/>
       <path id="DejaVuSans-28" d="M 1984 4856 
Q 1566 4138 1362 3434 
Q 1159 2731 1159 2009 
Q 1159 1288 1364 580 
Q 1569 -128 1984 -844 
L 1484 -844 
Q 1016 -109 783 600 
Q 550 1309 550 2009 
Q 550 2706 781 3412 
Q 1013 4119 1484 4856 
L 1984 4856 
z
" transform="scale(0.015625)"/>
       <path id="DejaVuSans-75" d="M 544 1381 
L 544 3500 
L 1119 3500 
L 1119 1403 
Q 1119 906 1312 657 
Q 1506 409 1894 409 
Q 2359 409 2629 706 
Q 2900 1003 2900 1516 
L 2900 3500 
L 3475 3500 
L 3475 0 
L 2900 0 
L 2900 538 
Q 2691 219 2414 64 
Q 2138 -91 1772 -91 
Q 1169 -91 856 284 
Q 544 659 544 1381 
z
M 1991 3584 
L 1991 3584 
z
" transform="scale(0.015625)"/>
       <path id="DejaVuSans-6d" d="M 3328 2828 
Q 3544 3216 3844 3400 
Q 4144 3584 4550 3584 
Q 5097 3584 5394 3201 
Q 5691 2819 5691 2113 
L 5691 0 
L 5113 0 
L 5113 2094 
Q 5113 2597 4934 2840 
Q 4756 3084 4391 3084 
Q 3944 3084 3684 2787 
Q 3425 2491 3425 1978 
L 3425 0 
L 2847 0 
L 2847 2094 
Q 2847 2600 2669 2842 
Q 2491 3084 2119 3084 
Q 1678 3084 1418 2786 
Q 1159 2488 1159 1978 
L 1159 0 
L 581 0 
L 581 3500 
L 1159 3500 
L 1159 2956 
Q 1356 3278 1631 3431 
Q 1906 3584 2284 3584 
Q 2666 3584 2933 3390 
Q 3200 3197 3328 2828 
z
" transform="scale(0.015625)"/>
       <path id="DejaVuSans-6c" d="M 603 4863 
L 1178 4863 
L 1178 0 
L 603 0 
L 603 4863 
z
" transform="scale(0.015625)"/>
       <path id="DejaVuSans-29" d="M 513 4856 
L 1013 4856 
Q 1481 4119 1714 3412 
Q 1947 2706 1947 2009 
Q 1947 1309 1714 600 
Q 1481 -109 1013 -844 
L 513 -844 
Q 928 -128 1133 580 
Q 1338 1288 1338 2009 
Q 1338 2731 1133 3434 
Q 928 4138 513 4856 
z
" transform="scale(0.015625)"/>
      </defs>
      <use xlink:href="#DejaVuSans-43"/>
      <use xlink:href="#DejaVuSans-6f" x="69.824219"/>
      <use xlink:href="#DejaVuSans-6e" x="131.005859"/>
      <use xlink:href="#DejaVuSans-63" x="194.384766"/>
      <use xlink:href="#DejaVuSans-65" x="249.365234"/>
      <use xlink:href="#DejaVuSans-6e" x="310.888672"/>
      <use xlink:href="#DejaVuSans-74" x="374.267578"/>
      <use xlink:href="#DejaVuSans-72" x="413.476562"/>
      <use xlink:href="#DejaVuSans-61" x="454.589844"/>
      <use xlink:href="#DejaVuSans-74" x="515.869141"/>
      <use xlink:href="#DejaVuSans-69" x="555.078125"/>
      <use xlink:href="#DejaVuSans-6f" x="582.861328"/>
      <use xlink:href="#DejaVuSans-6e" x="644.042969"/>
      <use xlink:href="#DejaVuSans-20" x="707.421875"/>
      <use xlink:href="#DejaVuSans-28" x="739.208984"/>
      <use xlink:href="#DejaVuSans-75" x="778.222656"/>
      <use xlink:href="#DejaVuSans-6d" x="841.601562"/>
      <use xlink:href="#DejaVuSans-6f" x="939.013672"/>
      <use xlink:href="#DejaVuSans-6c" x="1000.195312"/>
      <use xlink:href="#DejaVuSans-29" x="1027.978516"/>
     </g>
    </g>
   </g>
   <g id="line2d_15">
    <path d="M 184.581818 100.44042 
L 317.922078 100.543024 
L 346.909091 100.765841 
L 364.301299 101.089772 
L 375.896104 101.46902 
L 387.490909 102.068796 
L 399.085714 103.016145 
L 404.883117 103.678464 
L 410.680519 104.509526 
L 416.477922 105.551437 
L 422.275325 106.856305 
L 428.072727 108.488313 
L 433.87013 110.526076 
L 439.667532 113.065178 
L 445.464935 116.220757 
L 451.262338 120.129858 
L 457.05974 124.953112 
L 462.857143 130.875049 
L 468.654545 138.102121 
L 474.451948 146.85719 
L 480.249351 157.369103 
L 486.046753 169.856031 
L 491.844156 184.501841 
L 497.641558 201.426049 
L 503.438961 220.650047 
L 509.236364 242.064908 
L 515.033766 265.408549 
L 520.831169 290.260766 
L 538.223377 367.871966 
L 544.020779 392.552069 
L 549.818182 415.658646 
L 555.615584 436.792095 
L 561.412987 455.711581 
L 567.21039 472.327222 
L 573.007792 486.675502 
L 578.805195 498.886455 
L 584.602597 509.150142 
L 590.4 517.687363 
L 596.197403 524.726961 
L 601.994805 530.49006 
L 607.792208 535.180373 
L 613.58961 538.979249 
L 619.387013 542.044056 
L 625.184416 544.508734 
L 630.981818 546.485593 
L 636.779221 548.067715 
L 642.576623 549.331548 
L 648.374026 550.339429 
L 654.171429 551.141894 
L 659.968831 551.779729 
L 671.563636 552.686211 
L 683.158442 553.250599 
L 694.753247 553.595752 
L 712.145455 553.86774 
L 741.132468 554.012523 
L 828.093506 554.039963 
L 996.218182 554.04 
L 996.218182 554.04 
" clip-path="url(#p3de9a99e7e)" style="fill: none; stroke: #1f77b4; stroke-width: 4; stroke-linecap: square"/>
   </g>
   <g id="line2d_16">
    <path d="M 184.581818 554.039588 
L 317.922078 553.936984 
L 346.909091 553.714168 
L 364.301299 553.390236 
L 375.896104 553.01099 
L 387.490909 552.411216 
L 399.085714 551.463872 
L 404.883117 550.801558 
L 410.680519 549.970504 
L 416.477922 548.928605 
L 422.275325 547.623757 
L 428.072727 545.99178 
L 433.87013 543.954065 
L 439.667532 541.41504 
L 445.464935 538.259582 
L 451.262338 534.350669 
L 457.05974 529.52771 
L 462.857143 523.60623 
L 468.654545 516.379867 
L 474.451948 507.62589 
L 480.249351 497.115648 
L 486.046753 484.631258 
L 491.844156 469.989267 
L 497.641558 453.070745 
L 503.438961 433.855117 
L 509.236364 412.452409 
L 515.033766 389.126167 
L 520.831169 364.298485 
L 538.223377 286.830718 
L 544.020779 262.234081 
L 549.818182 239.237152 
L 555.615584 218.246272 
L 561.412987 199.51059 
L 567.21039 183.130292 
L 573.007792 169.081736 
L 578.805195 157.25092 
L 584.602597 147.467825 
L 590.4 139.536696 
L 596.197403 133.259931 
L 601.994805 128.455283 
L 607.792208 124.967249 
L 613.58961 122.674018 
L 619.387013 121.491332 
L 625.184416 121.374428 
L 630.981818 122.318832 
L 636.779221 124.360423 
L 642.576623 127.574829 
L 648.374026 132.075793 
L 654.171429 138.011817 
L 659.968831 145.560014 
L 665.766234 154.915823 
L 671.563636 166.277195 
L 677.361039 179.822214 
L 683.158442 195.680122 
L 688.955844 213.89755 
L 694.753247 234.404303 
L 700.550649 256.98566 
L 706.348052 281.269703 
L 712.145455 306.737215 
L 723.74026 358.645762 
L 729.537662 383.733462 
L 735.335065 407.433545 
L 741.132468 429.290505 
L 746.92987 449.005314 
L 752.727273 466.435369 
L 758.524675 481.574837 
L 764.322078 494.523762 
L 770.119481 505.45403 
L 775.916883 514.578141 
L 781.714286 522.124006 
L 787.511688 528.316749 
L 793.309091 533.366972 
L 799.106494 537.464267 
L 804.903896 540.774549 
L 810.701299 543.439951 
L 816.498701 545.580259 
L 822.296104 547.295161 
L 828.093506 548.666799 
L 833.890909 549.762344 
L 839.688312 550.63639 
L 845.485714 551.333095 
L 851.283117 551.888044 
L 862.877922 552.681367 
L 874.472727 553.183347 
L 891.864935 553.612305 
L 915.054545 553.872028 
L 955.636364 554.009091 
L 996.218182 554.034924 
L 996.218182 554.034924 
" clip-path="url(#p3de9a99e7e)" style="fill: none; stroke: #ff7f0e; stroke-width: 4; stroke-linecap: square"/>
   </g>
   <g id="line2d_17">
    <path d="M 184.581818 554.04 
L 520.831169 553.960757 
L 544.020779 553.733858 
L 561.412987 553.297837 
L 573.007792 552.76277 
L 584.602597 551.90204 
L 590.4 551.295948 
L 596.197403 550.533116 
L 601.994805 549.574665 
L 607.792208 548.372385 
L 613.58961 546.86674 
L 619.387013 544.984619 
L 625.184416 542.636845 
L 630.981818 539.715583 
L 636.779221 536.09187 
L 642.576623 531.61363 
L 648.374026 526.104785 
L 654.171429 519.366296 
L 659.968831 511.180264 
L 665.766234 501.318451 
L 671.563636 489.556602 
L 677.361039 475.695576 
L 683.158442 459.589287 
L 688.955844 441.17762 
L 694.753247 420.519952 
L 700.550649 397.822292 
L 706.348052 373.449502 
L 712.145455 347.915052 
L 723.74026 295.920118 
L 729.537662 270.805997 
L 735.335065 247.087114 
L 741.132468 225.216978 
L 746.92987 205.493068 
L 752.727273 188.056812 
L 758.524675 172.913168 
L 764.322078 159.961463 
L 770.119481 149.02936 
L 775.916883 139.904049 
L 781.714286 132.357403 
L 787.511688 126.164156 
L 793.309091 121.113608 
L 799.106494 117.016105 
L 804.903896 113.70569 
L 810.701299 111.040203 
L 816.498701 108.899841 
L 822.296104 107.184905 
L 828.093506 105.813245 
L 833.890909 104.717686 
L 839.688312 103.843631 
L 845.485714 103.146921 
L 851.283117 102.591968 
L 862.877922 101.798642 
L 874.472727 101.29666 
L 891.864935 100.867701 
L 915.054545 100.607978 
L 955.636364 100.470916 
L 996.218182 100.445084 
L 996.218182 100.445084 
" clip-path="url(#p3de9a99e7e)" style="fill: none; stroke: #2ca02c; stroke-width: 4; stroke-linecap: square"/>
   </g>
   <g id="line2d_18">
    <path d="M 184.581818 554.030748 
L 242.555844 553.899505 
L 265.745455 553.679238 
L 283.137662 553.315486 
L 294.732468 552.889704 
L 306.327273 552.216523 
L 312.124675 551.745404 
L 317.922078 551.153695 
L 323.719481 550.410981 
L 329.516883 549.479432 
L 335.314286 548.312152 
L 341.111688 546.851232 
L 346.909091 545.025539 
L 352.706494 542.74825 
L 358.503896 539.914271 
L 364.301299 536.397722 
L 370.098701 532.049865 
L 375.896104 526.698011 
L 381.693506 520.146229 
L 387.490909 512.178949 
L 393.288312 502.568774 
L 399.085714 491.08991 
L 404.883117 477.538315 
L 410.680519 461.758732 
L 416.477922 443.677094 
L 422.275325 423.334301 
L 428.072727 400.914727 
L 433.87013 376.761004 
L 439.667532 351.367236 
L 451.262338 299.375687 
L 457.05974 274.126191 
L 462.857143 250.196906 
L 468.654545 228.061345 
L 474.451948 208.039011 
L 480.249351 190.292113 
L 486.046753 174.842883 
L 491.844156 161.603345 
L 497.641558 150.409246 
L 503.438961 141.051867 
L 509.236364 133.304097 
L 515.033766 126.939569 
L 520.831169 121.745192 
L 526.628571 117.528266 
L 532.425974 114.119583 
L 538.223377 111.37382 
L 544.020779 109.168254 
L 549.818182 107.400603 
L 555.615584 105.986477 
L 561.412987 104.85681 
L 567.21039 103.955422 
L 573.007792 103.236848 
L 578.805195 102.66443 
L 590.4 101.84606 
L 601.994805 101.32818 
L 619.387013 100.885582 
L 642.576623 100.617498 
L 677.361039 100.484604 
L 770.119481 100.441128 
L 996.218182 100.44 
L 996.218182 100.44 
" clip-path="url(#p3de9a99e7e)" style="fill: none; stroke: #d62728; stroke-width: 4; stroke-linecap: square"/>
   </g>
   <g id="line2d_19">
    <path d="M 184.581818 100.44926 
L 242.555844 100.580504 
L 265.745455 100.80077 
L 283.137662 101.164523 
L 294.732468 101.590305 
L 306.327273 102.263486 
L 312.124675 102.734605 
L 317.922078 103.326313 
L 323.719481 104.069027 
L 329.516883 105.000576 
L 335.314286 106.167857 
L 341.111688 107.628776 
L 346.909091 109.454469 
L 352.706494 111.731758 
L 358.503896 114.565738 
L 364.301299 118.082286 
L 370.098701 122.430143 
L 375.896104 127.781997 
L 381.693506 134.333779 
L 387.490909 142.301059 
L 393.288312 151.911235 
L 399.085714 163.390098 
L 404.883117 176.941693 
L 410.680519 192.721276 
L 416.477922 210.802915 
L 422.275325 231.145707 
L 428.072727 253.565282 
L 433.87013 277.719004 
L 439.667532 303.112772 
L 451.262338 355.104321 
L 457.05974 380.353817 
L 462.857143 404.283102 
L 468.654545 426.418663 
L 474.451948 446.440996 
L 480.249351 464.187895 
L 486.046753 479.637125 
L 491.844156 492.876663 
L 497.641558 504.070761 
L 503.438961 513.428141 
L 509.236364 521.175911 
L 515.033766 527.540438 
L 520.831169 532.734816 
L 526.628571 536.951742 
L 532.425974 540.360424 
L 538.223377 543.106188 
L 544.020779 545.311753 
L 549.818182 547.079405 
L 555.615584 548.49353 
L 561.412987 549.623198 
L 567.21039 550.524585 
L 573.007792 551.24316 
L 578.805195 551.815578 
L 590.4 552.633947 
L 601.994805 553.151828 
L 619.387013 553.594426 
L 642.576623 553.862509 
L 677.361039 553.995404 
L 770.119481 554.03888 
L 996.218182 554.04 
L 996.218182 554.04 
" clip-path="url(#p3de9a99e7e)" style="fill: none; stroke: #9467bd; stroke-width: 4; stroke-linecap: square"/>
   </g>
   <g id="patch_3">
    <path d="M 144 576.72 
L 144 77.76 
" style="fill: none; stroke: #000000; stroke-width: 0.8; stroke-linejoin: miter; stroke-linecap: square"/>
   </g>
   <g id="patch_4">
    <path d="M 1036.8 576.72 
L 1036.8 77.76 
" style="fill: none; stroke: #000000; stroke-width: 0.8; stroke-linejoin: miter; stroke-linecap: square"/>
   </g>
   <g id="patch_5">
    <path d="M 144 576.72 
L 1036.8 576.72 
" style="fill: none; stroke: #000000; stroke-width: 0.8; stroke-linejoin: miter; stroke-linecap: square"/>
   </g>
   <g id="patch_6">
    <path d="M 144 77.76 
L 1036.8 77.76 
" style="fill: none; stroke: #000000; stroke-width: 0.8; stroke-linejoin: miter; stroke-linecap: square"/>
   </g>
   <g id="text_17">
    <!--  1mmol NaHCO3 + 1mmol Na(acetate) pH speciation  -->
    <g transform="translate(320.314062 71.76) scale(0.2 -0.2)">
     <defs>
      <path id="DejaVuSans-4e" d="M 628 4666 
L 1478 4666 
L 3547 763 
L 3547 4666 
L 4159 4666 
L 4159 0 
L 3309 0 
L 1241 3903 
L 1241 0 
L 628 0 
L 628 4666 
z
" transform="scale(0.015625)"/>
      <path id="DejaVuSans-4f" d="M 2522 4238 
Q 1834 4238 1429 3725 
Q 1025 3213 1025 2328 
Q 1025 1447 1429 934 
Q 1834 422 2522 422 
Q 3209 422 3611 934 
Q 4013 1447 4013 2328 
Q 4013 3213 3611 3725 
Q 3209 4238 2522 4238 
z
M 2522 4750 
Q 3503 4750 4090 4092 
Q 4678 3434 4678 2328 
Q 4678 1225 4090 567 
Q 3503 -91 2522 -91 
Q 1538 -91 948 565 
Q 359 1222 359 2328 
Q 359 3434 948 4092 
Q 1538 4750 2522 4750 
z
" transform="scale(0.015625)"/>
      <path id="DejaVuSans-33" d="M 2597 2516 
Q 3050 2419 3304 2112 
Q 3559 1806 3559 1356 
Q 3559 666 3084 287 
Q 2609 -91 1734 -91 
Q 1441 -91 1130 -33 
Q 819 25 488 141 
L 488 750 
Q 750 597 1062 519 
Q 1375 441 1716 441 
Q 2309 441 2620 675 
Q 2931 909 2931 1356 
Q 2931 1769 2642 2001 
Q 2353 2234 1838 2234 
L 1294 2234 
L 1294 2753 
L 1863 2753 
Q 2328 2753 2575 2939 
Q 2822 3125 2822 3475 
Q 2822 3834 2567 4026 
Q 2313 4219 1838 4219 
Q 1578 4219 1281 4162 
Q 984 4106 628 3988 
L 628 4550 
Q 988 4650 1302 4700 
Q 1616 4750 1894 4750 
Q 2613 4750 3031 4423 
Q 3450 4097 3450 3541 
Q 3450 3153 3228 2886 
Q 3006 2619 2597 2516 
z
" transform="scale(0.015625)"/>
      <path id="DejaVuSans-2b" d="M 2944 4013 
L 2944 2272 
L 4684 2272 
L 4684 1741 
L 2944 1741 
L 2944 0 
L 2419 0 
L 2419 1741 
L 678 1741 
L 678 2272 
L 2419 2272 
L 2419 4013 
L 2944 4013 
z
" transform="scale(0.015625)"/>
      <path id="DejaVuSans-73" d="M 2834 3397 
L 2834 2853 
Q 2591 2978 2328 3040 
Q 2066 3103 1784 3103 
Q 1356 3103 1142 2972 
Q 928 2841 928 2578 
Q 928 2378 1081 2264 
Q 1234 2150 1697 2047 
L 1894 2003 
Q 2506 1872 2764 1633 
Q 3022 1394 3022 966 
Q 3022 478 2636 193 
Q 2250 -91 1575 -91 
Q 1294 -91 989 -36 
Q 684 19 347 128 
L 347 722 
Q 666 556 975 473 
Q 1284 391 1588 391 
Q 1994 391 2212 530 
Q 2431 669 2431 922 
Q 2431 1156 2273 1281 
Q 2116 1406 1581 1522 
L 1381 1569 
Q 847 1681 609 1914 
Q 372 2147 372 2553 
Q 372 3047 722 3315 
Q 1072 3584 1716 3584 
Q 2034 3584 2315 3537 
Q 2597 3491 2834 3397 
z
" transform="scale(0.015625)"/>
     </defs>
     <use xlink:href="#DejaVuSans-20"/>
     <use xlink:href="#DejaVuSans-31" x="31.787109"/>
     <use xlink:href="#DejaVuSans-6d" x="95.410156"/>
     <use xlink:href="#DejaVuSans-6d" x="192.822266"/>
     <use xlink:href="#DejaVuSans-6f" x="290.234375"/>
     <use xlink:href="#DejaVuSans-6c" x="351.416016"/>
     <use xlink:href="#DejaVuSans-20" x="379.199219"/>
     <use xlink:href="#DejaVuSans-4e" x="410.986328"/>
     <use xlink:href="#DejaVuSans-61" x="485.791016"/>
     <use xlink:href="#DejaVuSans-48" x="547.070312"/>
     <use xlink:href="#DejaVuSans-43" x="622.265625"/>
     <use xlink:href="#DejaVuSans-4f" x="692.089844"/>
     <use xlink:href="#DejaVuSans-33" x="770.800781"/>
     <use xlink:href="#DejaVuSans-20" x="834.423828"/>
     <use xlink:href="#DejaVuSans-2b" x="866.210938"/>
     <use xlink:href="#DejaVuSans-20" x="950"/>
     <use xlink:href="#DejaVuSans-31" x="981.787109"/>
     <use xlink:href="#DejaVuSans-6d" x="1045.410156"/>
     <use xlink:href="#DejaVuSans-6d" x="1142.822266"/>
     <use xlink:href="#DejaVuSans-6f" x="1240.234375"/>
     <use xlink:href="#DejaVuSans-6c" x="1301.416016"/>
     <use xlink:href="#DejaVuSans-20" x="1329.199219"/>
     <use xlink:href="#DejaVuSans-4e" x="1360.986328"/>
     <use xlink:href="#DejaVuSans-61" x="1435.791016"/>
     <use xlink:href="#DejaVuSans-28" x="1497.070312"/>
     <use xlink:href="#DejaVuSans-61" x="1536.083984"/>
     <use xlink:href="#DejaVuSans-63" x="1597.363281"/>
     <use xlink:href="#DejaVuSans-65" x="1652.34375"/>
     <use xlink:href="#DejaVuSans-74" x="1713.867188"/>
     <use xlink:href="#DejaVuSans-61" x="1753.076172"/>
     <use xlink:href="#DejaVuSans-74" x="1814.355469"/>
     <use xlink:href="#DejaVuSans-65" x="1853.564453"/>
     <use xlink:href="#DejaVuSans-29" x="1915.087891"/>
     <use xlink:href="#DejaVuSans-20" x="1954.101562"/>
     <use xlink:href="#DejaVuSans-70" x="1985.888672"/>
     <use xlink:href="#DejaVuSans-48" x="2049.365234"/>
     <use xlink:href="#DejaVuSans-20" x="2124.560547"/>
     <use xlink:href="#DejaVuSans-73" x="2156.347656"/>
     <use xlink:href="#DejaVuSans-70" x="2208.447266"/>
     <use xlink:href="#DejaVuSans-65" x="2271.923828"/>
     <use xlink:href="#DejaVuSans-63" x="2333.447266"/>
     <use xlink:href="#DejaVuSans-69" x="2388.427734"/>
     <use xlink:href="#DejaVuSans-61" x="2416.210938"/>
     <use xlink:href="#DejaVuSans-74" x="2477.490234"/>
     <use xlink:href="#DejaVuSans-69" x="2516.699219"/>
     <use xlink:href="#DejaVuSans-6f" x="2544.482422"/>
     <use xlink:href="#DejaVuSans-6e" x="2605.664062"/>
     <use xlink:href="#DejaVuSans-20" x="2669.042969"/>
    </g>
   </g>
   <g id="legend_1">
    <g id="patch_7">
     <path d="M 835.2 398.819531 
L 1024.2 398.819531 
Q 1027.8 398.819531 1027.8 395.219531 
L 1027.8 259.260469 
Q 1027.8 255.660469 1024.2 255.660469 
L 835.2 255.660469 
Q 831.6 255.660469 831.6 259.260469 
L 831.6 395.219531 
Q 831.6 398.819531 835.2 398.819531 
z
" style="fill: #ffffff; opacity: 0.8; stroke: #cccccc; stroke-linejoin: miter"/>
    </g>
    <g id="line2d_20">
     <path d="M 838.8 270.237656 
L 856.8 270.237656 
L 874.8 270.237656 
" style="fill: none; stroke: #1f77b4; stroke-width: 4; stroke-linecap: square"/>
    </g>
    <g id="text_18">
     <!-- CO$_2$ -->
     <g transform="translate(889.2 276.537656) scale(0.18 -0.18)">
      <use xlink:href="#DejaVuSans-43" transform="translate(0 0.78125)"/>
      <use xlink:href="#DejaVuSans-4f" transform="translate(69.824219 0.78125)"/>
      <use xlink:href="#DejaVuSans-32" transform="translate(149.492188 -15.625) scale(0.7)"/>
     </g>
    </g>
    <g id="line2d_21">
     <path d="M 838.8 296.658281 
L 856.8 296.658281 
L 874.8 296.658281 
" style="fill: none; stroke: #ff7f0e; stroke-width: 4; stroke-linecap: square"/>
    </g>
    <g id="text_19">
     <!-- HCO$_3^-$ -->
     <g transform="translate(889.2 302.958281) scale(0.18 -0.18)">
      <defs>
       <path id="DejaVuSans-2212" d="M 678 2272 
L 4684 2272 
L 4684 1741 
L 678 1741 
L 678 2272 
z
" transform="scale(0.015625)"/>
      </defs>
      <use xlink:href="#DejaVuSans-48" transform="translate(0 0.78125)"/>
      <use xlink:href="#DejaVuSans-43" transform="translate(75.195312 0.78125)"/>
      <use xlink:href="#DejaVuSans-4f" transform="translate(145.019531 0.78125)"/>
      <use xlink:href="#DejaVuSans-2212" transform="translate(238.325195 39.0625) scale(0.7)"/>
      <use xlink:href="#DejaVuSans-33" transform="translate(224.6875 -26.5625) scale(0.7)"/>
     </g>
    </g>
    <g id="line2d_22">
     <path d="M 838.8 327.258281 
L 856.8 327.258281 
L 874.8 327.258281 
" style="fill: none; stroke: #2ca02c; stroke-width: 4; stroke-linecap: square"/>
    </g>
    <g id="text_20">
     <!-- CO$_3^{2-}$ -->
     <g transform="translate(889.2 333.558281) scale(0.18 -0.18)">
      <use xlink:href="#DejaVuSans-43" transform="translate(0 0.765625)"/>
      <use xlink:href="#DejaVuSans-4f" transform="translate(69.824219 0.765625)"/>
      <use xlink:href="#DejaVuSans-32" transform="translate(149.492188 39.046875) scale(0.7)"/>
      <use xlink:href="#DejaVuSans-2212" transform="translate(207.666016 39.046875) scale(0.7)"/>
      <use xlink:href="#DejaVuSans-33" transform="translate(149.492188 -26.578125) scale(0.7)"/>
     </g>
    </g>
    <g id="line2d_23">
     <path d="M 838.8 355.155469 
L 856.8 355.155469 
L 874.8 355.155469 
" style="fill: none; stroke: #d62728; stroke-width: 4; stroke-linecap: square"/>
    </g>
    <g id="text_21">
     <!-- total acetate$^-$ -->
     <g transform="translate(889.2 361.455469) scale(0.18 -0.18)">
      <use xlink:href="#DejaVuSans-74" transform="translate(0 0.015625)"/>
      <use xlink:href="#DejaVuSans-6f" transform="translate(39.208984 0.015625)"/>
      <use xlink:href="#DejaVuSans-74" transform="translate(100.390625 0.015625)"/>
      <use xlink:href="#DejaVuSans-61" transform="translate(139.599609 0.015625)"/>
      <use xlink:href="#DejaVuSans-6c" transform="translate(200.878906 0.015625)"/>
      <use xlink:href="#DejaVuSans-20" transform="translate(228.662109 0.015625)"/>
      <use xlink:href="#DejaVuSans-61" transform="translate(260.449219 0.015625)"/>
      <use xlink:href="#DejaVuSans-63" transform="translate(321.728516 0.015625)"/>
      <use xlink:href="#DejaVuSans-65" transform="translate(376.708984 0.015625)"/>
      <use xlink:href="#DejaVuSans-74" transform="translate(438.232422 0.015625)"/>
      <use xlink:href="#DejaVuSans-61" transform="translate(477.441406 0.015625)"/>
      <use xlink:href="#DejaVuSans-74" transform="translate(538.720703 0.015625)"/>
      <use xlink:href="#DejaVuSans-65" transform="translate(577.929688 0.015625)"/>
      <use xlink:href="#DejaVuSans-2212" transform="translate(654.047852 38.296875) scale(0.7)"/>
     </g>
    </g>
    <g id="line2d_24">
     <path d="M 838.8 381.576094 
L 856.8 381.576094 
L 874.8 381.576094 
" style="fill: none; stroke: #9467bd; stroke-width: 4; stroke-linecap: square"/>
    </g>
    <g id="text_22">
     <!-- H(acetate) -->
     <g transform="translate(889.2 387.876094) scale(0.18 -0.18)">
      <use xlink:href="#DejaVuSans-48"/>
      <use xlink:href="#DejaVuSans-28" x="75.195312"/>
      <use xlink:href="#DejaVuSans-61" x="114.208984"/>
      <use xlink:href="#DejaVuSans-63" x="175.488281"/>
      <use xlink:href="#DejaVuSans-65" x="230.46875"/>
      <use xlink:href="#DejaVuSans-74" x="291.992188"/>
      <use xlink:href="#DejaVuSans-61" x="331.201172"/>
      <use xlink:href="#DejaVuSans-74" x="392.480469"/>
      <use xlink:href="#DejaVuSans-65" x="431.689453"/>
      <use xlink:href="#DejaVuSans-29" x="493.212891"/>
     </g>
    </g>
   </g>
  </g>
 </g>
 <defs>
  <clipPath id="p3de9a99e7e">
   <rect x="144" y="77.76" width="892.8" height="498.96"/>
  </clipPath>
 </defs>
</svg>
