<?xml version="1.0" encoding="utf-8" standalone="no"?>
<!DOCTYPE svg PUBLIC "-//W3C//DTD SVG 1.1//EN"
  "http://www.w3.org/Graphics/SVG/1.1/DTD/svg11.dtd">
<svg xmlns:xlink="http://www.w3.org/1999/xlink" width="1152pt" height="648pt" viewBox="0 0 1152 648" xmlns="http://www.w3.org/2000/svg" version="1.1">
 <metadata>
  <rdf:RDF xmlns:dc="http://purl.org/dc/elements/1.1/" xmlns:cc="http://creativecommons.org/ns#" xmlns:rdf="http://www.w3.org/1999/02/22-rdf-syntax-ns#">
   <cc:Work>
    <dc:type rdf:resource="http://purl.org/dc/dcmitype/StillImage"/>
    <dc:date>2025-03-11T16:52:19.799126</dc:date>
    <dc:format>image/svg+xml</dc:format>
    <dc:creator>
     <cc:Agent>
      <dc:title>Matplotlib v3.9.3, https://matplotlib.org/</dc:title>
     </cc:Agent>
    </dc:creator>
   </cc:Work>
  </rdf:RDF>
 </metadata>
 <defs>
  <style type="text/css">*{stroke-linejoin: round; stroke-linecap: butt}</style>
 </defs>
 <g id="figure_1">
  <g id="patch_1">
   <path d="M 0 648 
L 1152 648 
L 1152 0 
L 0 0 
z
" style="fill: #ffffff"/>
  </g>
  <g id="axes_1">
   <g id="patch_2">
    <path d="M 144 576.72 
L 1036.8 576.72 
L 1036.8 77.76 
L 144 77.76 
z
" style="fill: #ffffff"/>
   </g>
   <g id="matplotlib.axis_1">
    <g id="xtick_1">
     <g id="line2d_1">
      <defs>
       <path id="mde31c432e6" d="M 0 0 
L 0 3.5 
" style="stroke: #000000; stroke-width: 0.8"/>
      </defs>
      <g>
       <use xlink:href="#mde31c432e6" x="144" y="576.72" style="stroke: #000000; stroke-width: 0.8"/>
      </g>
     </g>
     <g id="text_1">
      <!-- 0 -->
      <g transform="translate(138.27375 597.397187) scale(0.18 -0.18)">
       <defs>
        <path id="DejaVuSans-30" d="M 2034 4250 
Q 1547 4250 1301 3770 
Q 1056 3291 1056 2328 
Q 1056 1369 1301 889 
Q 1547 409 2034 409 
Q 2525 409 2770 889 
Q 3016 1369 3016 2328 
Q 3016 3291 2770 3770 
Q 2525 4250 2034 4250 
z
M 2034 4750 
Q 2819 4750 3233 4129 
Q 3647 3509 3647 2328 
Q 3647 1150 3233 529 
Q 2819 -91 2034 -91 
Q 1250 -91 836 529 
Q 422 1150 422 2328 
Q 422 3509 836 4129 
Q 1250 4750 2034 4750 
z
" transform="scale(0.015625)"/>
       </defs>
       <use xlink:href="#DejaVuSans-30"/>
      </g>
     </g>
    </g>
    <g id="xtick_2">
     <g id="line2d_2">
      <g>
       <use xlink:href="#mde31c432e6" x="292.8" y="576.72" style="stroke: #000000; stroke-width: 0.8"/>
      </g>
     </g>
     <g id="text_2">
      <!-- 5 -->
      <g transform="translate(287.07375 597.397187) scale(0.18 -0.18)">
       <defs>
        <path id="DejaVuSans-35" d="M 691 4666 
L 3169 4666 
L 3169 4134 
L 1269 4134 
L 1269 2991 
Q 1406 3038 1543 3061 
Q 1681 3084 1819 3084 
Q 2600 3084 3056 2656 
Q 3513 2228 3513 1497 
Q 3513 744 3044 326 
Q 2575 -91 1722 -91 
Q 1428 -91 1123 -41 
Q 819 9 494 109 
L 494 744 
Q 775 591 1075 516 
Q 1375 441 1709 441 
Q 2250 441 2565 725 
Q 2881 1009 2881 1497 
Q 2881 1984 2565 2268 
Q 2250 2553 1709 2553 
Q 1456 2553 1204 2497 
Q 953 2441 691 2322 
L 691 4666 
z
" transform="scale(0.015625)"/>
       </defs>
       <use xlink:href="#DejaVuSans-35"/>
      </g>
     </g>
    </g>
    <g id="xtick_3">
     <g id="line2d_3">
      <g>
       <use xlink:href="#mde31c432e6" x="441.6" y="576.72" style="stroke: #000000; stroke-width: 0.8"/>
      </g>
     </g>
     <g id="text_3">
      <!-- 10 -->
      <g transform="translate(430.1475 597.397187) scale(0.18 -0.18)">
       <defs>
        <path id="DejaVuSans-31" d="M 794 531 
L 1825 531 
L 1825 4091 
L 703 3866 
L 703 4441 
L 1819 4666 
L 2450 4666 
L 2450 531 
L 3481 531 
L 3481 0 
L 794 0 
L 794 531 
z
" transform="scale(0.015625)"/>
       </defs>
       <use xlink:href="#DejaVuSans-31"/>
       <use xlink:href="#DejaVuSans-30" x="63.623047"/>
      </g>
     </g>
    </g>
    <g id="xtick_4">
     <g id="line2d_4">
      <g>
       <use xlink:href="#mde31c432e6" x="590.4" y="576.72" style="stroke: #000000; stroke-width: 0.8"/>
      </g>
     </g>
     <g id="text_4">
      <!-- 15 -->
      <g transform="translate(578.9475 597.397187) scale(0.18 -0.18)">
       <use xlink:href="#DejaVuSans-31"/>
       <use xlink:href="#DejaVuSans-35" x="63.623047"/>
      </g>
     </g>
    </g>
    <g id="xtick_5">
     <g id="line2d_5">
      <g>
       <use xlink:href="#mde31c432e6" x="739.2" y="576.72" style="stroke: #000000; stroke-width: 0.8"/>
      </g>
     </g>
     <g id="text_5">
      <!-- 20 -->
      <g transform="translate(727.7475 597.397187) scale(0.18 -0.18)">
       <defs>
        <path id="DejaVuSans-32" d="M 1228 531 
L 3431 531 
L 3431 0 
L 469 0 
L 469 531 
Q 828 903 1448 1529 
Q 2069 2156 2228 2338 
Q 2531 2678 2651 2914 
Q 2772 3150 2772 3378 
Q 2772 3750 2511 3984 
Q 2250 4219 1831 4219 
Q 1534 4219 1204 4116 
Q 875 4013 500 3803 
L 500 4441 
Q 881 4594 1212 4672 
Q 1544 4750 1819 4750 
Q 2544 4750 2975 4387 
Q 3406 4025 3406 3419 
Q 3406 3131 3298 2873 
Q 3191 2616 2906 2266 
Q 2828 2175 2409 1742 
Q 1991 1309 1228 531 
z
" transform="scale(0.015625)"/>
       </defs>
       <use xlink:href="#DejaVuSans-32"/>
       <use xlink:href="#DejaVuSans-30" x="63.623047"/>
      </g>
     </g>
    </g>
    <g id="xtick_6">
     <g id="line2d_6">
      <g>
       <use xlink:href="#mde31c432e6" x="888" y="576.72" style="stroke: #000000; stroke-width: 0.8"/>
      </g>
     </g>
     <g id="text_6">
      <!-- 25 -->
      <g transform="translate(876.5475 597.397187) scale(0.18 -0.18)">
       <use xlink:href="#DejaVuSans-32"/>
       <use xlink:href="#DejaVuSans-35" x="63.623047"/>
      </g>
     </g>
    </g>
    <g id="xtick_7">
     <g id="line2d_7">
      <g>
       <use xlink:href="#mde31c432e6" x="1036.8" y="576.72" style="stroke: #000000; stroke-width: 0.8"/>
      </g>
     </g>
     <g id="text_7">
      <!-- 30 -->
      <g transform="translate(1025.3475 597.397187) scale(0.18 -0.18)">
       <defs>
        <path id="DejaVuSans-33" d="M 2597 2516 
Q 3050 2419 3304 2112 
Q 3559 1806 3559 1356 
Q 3559 666 3084 287 
Q 2609 -91 1734 -91 
Q 1441 -91 1130 -33 
Q 819 25 488 141 
L 488 750 
Q 750 597 1062 519 
Q 1375 441 1716 441 
Q 2309 441 2620 675 
Q 2931 909 2931 1356 
Q 2931 1769 2642 2001 
Q 2353 2234 1838 2234 
L 1294 2234 
L 1294 2753 
L 1863 2753 
Q 2328 2753 2575 2939 
Q 2822 3125 2822 3475 
Q 2822 3834 2567 4026 
Q 2313 4219 1838 4219 
Q 1578 4219 1281 4162 
Q 984 4106 628 3988 
L 628 4550 
Q 988 4650 1302 4700 
Q 1616 4750 1894 4750 
Q 2613 4750 3031 4423 
Q 3450 4097 3450 3541 
Q 3450 3153 3228 2886 
Q 3006 2619 2597 2516 
z
" transform="scale(0.015625)"/>
       </defs>
       <use xlink:href="#DejaVuSans-33"/>
       <use xlink:href="#DejaVuSans-30" x="63.623047"/>
      </g>
     </g>
    </g>
    <g id="text_8">
     <!-- added acid [ml] -->
     <g transform="translate(511.642187 620.3375) scale(0.2 -0.2)">
      <defs>
       <path id="DejaVuSans-61" d="M 2194 1759 
Q 1497 1759 1228 1600 
Q 959 1441 959 1056 
Q 959 750 1161 570 
Q 1363 391 1709 391 
Q 2188 391 2477 730 
Q 2766 1069 2766 1631 
L 2766 1759 
L 2194 1759 
z
M 3341 1997 
L 3341 0 
L 2766 0 
L 2766 531 
Q 2569 213 2275 61 
Q 1981 -91 1556 -91 
Q 1019 -91 701 211 
Q 384 513 384 1019 
Q 384 1609 779 1909 
Q 1175 2209 1959 2209 
L 2766 2209 
L 2766 2266 
Q 2766 2663 2505 2880 
Q 2244 3097 1772 3097 
Q 1472 3097 1187 3025 
Q 903 2953 641 2809 
L 641 3341 
Q 956 3463 1253 3523 
Q 1550 3584 1831 3584 
Q 2591 3584 2966 3190 
Q 3341 2797 3341 1997 
z
" transform="scale(0.015625)"/>
       <path id="DejaVuSans-64" d="M 2906 2969 
L 2906 4863 
L 3481 4863 
L 3481 0 
L 2906 0 
L 2906 525 
Q 2725 213 2448 61 
Q 2172 -91 1784 -91 
Q 1150 -91 751 415 
Q 353 922 353 1747 
Q 353 2572 751 3078 
Q 1150 3584 1784 3584 
Q 2172 3584 2448 3432 
Q 2725 3281 2906 2969 
z
M 947 1747 
Q 947 1113 1208 752 
Q 1469 391 1925 391 
Q 2381 391 2643 752 
Q 2906 1113 2906 1747 
Q 2906 2381 2643 2742 
Q 2381 3103 1925 3103 
Q 1469 3103 1208 2742 
Q 947 2381 947 1747 
z
" transform="scale(0.015625)"/>
       <path id="DejaVuSans-65" d="M 3597 1894 
L 3597 1613 
L 953 1613 
Q 991 1019 1311 708 
Q 1631 397 2203 397 
Q 2534 397 2845 478 
Q 3156 559 3463 722 
L 3463 178 
Q 3153 47 2828 -22 
Q 2503 -91 2169 -91 
Q 1331 -91 842 396 
Q 353 884 353 1716 
Q 353 2575 817 3079 
Q 1281 3584 2069 3584 
Q 2775 3584 3186 3129 
Q 3597 2675 3597 1894 
z
M 3022 2063 
Q 3016 2534 2758 2815 
Q 2500 3097 2075 3097 
Q 1594 3097 1305 2825 
Q 1016 2553 972 2059 
L 3022 2063 
z
" transform="scale(0.015625)"/>
       <path id="DejaVuSans-20" transform="scale(0.015625)"/>
       <path id="DejaVuSans-63" d="M 3122 3366 
L 3122 2828 
Q 2878 2963 2633 3030 
Q 2388 3097 2138 3097 
Q 1578 3097 1268 2742 
Q 959 2388 959 1747 
Q 959 1106 1268 751 
Q 1578 397 2138 397 
Q 2388 397 2633 464 
Q 2878 531 3122 666 
L 3122 134 
Q 2881 22 2623 -34 
Q 2366 -91 2075 -91 
Q 1284 -91 818 406 
Q 353 903 353 1747 
Q 353 2603 823 3093 
Q 1294 3584 2113 3584 
Q 2378 3584 2631 3529 
Q 2884 3475 3122 3366 
z
" transform="scale(0.015625)"/>
       <path id="DejaVuSans-69" d="M 603 3500 
L 1178 3500 
L 1178 0 
L 603 0 
L 603 3500 
z
M 603 4863 
L 1178 4863 
L 1178 4134 
L 603 4134 
L 603 4863 
z
" transform="scale(0.015625)"/>
       <path id="DejaVuSans-5b" d="M 550 4863 
L 1875 4863 
L 1875 4416 
L 1125 4416 
L 1125 -397 
L 1875 -397 
L 1875 -844 
L 550 -844 
L 550 4863 
z
" transform="scale(0.015625)"/>
       <path id="DejaVuSans-6d" d="M 3328 2828 
Q 3544 3216 3844 3400 
Q 4144 3584 4550 3584 
Q 5097 3584 5394 3201 
Q 5691 2819 5691 2113 
L 5691 0 
L 5113 0 
L 5113 2094 
Q 5113 2597 4934 2840 
Q 4756 3084 4391 3084 
Q 3944 3084 3684 2787 
Q 3425 2491 3425 1978 
L 3425 0 
L 2847 0 
L 2847 2094 
Q 2847 2600 2669 2842 
Q 2491 3084 2119 3084 
Q 1678 3084 1418 2786 
Q 1159 2488 1159 1978 
L 1159 0 
L 581 0 
L 581 3500 
L 1159 3500 
L 1159 2956 
Q 1356 3278 1631 3431 
Q 1906 3584 2284 3584 
Q 2666 3584 2933 3390 
Q 3200 3197 3328 2828 
z
" transform="scale(0.015625)"/>
       <path id="DejaVuSans-6c" d="M 603 4863 
L 1178 4863 
L 1178 0 
L 603 0 
L 603 4863 
z
" transform="scale(0.015625)"/>
       <path id="DejaVuSans-5d" d="M 1947 4863 
L 1947 -844 
L 622 -844 
L 622 -397 
L 1369 -397 
L 1369 4416 
L 622 4416 
L 622 4863 
L 1947 4863 
z
" transform="scale(0.015625)"/>
      </defs>
      <use xlink:href="#DejaVuSans-61"/>
      <use xlink:href="#DejaVuSans-64" x="61.279297"/>
      <use xlink:href="#DejaVuSans-64" x="124.755859"/>
      <use xlink:href="#DejaVuSans-65" x="188.232422"/>
      <use xlink:href="#DejaVuSans-64" x="249.755859"/>
      <use xlink:href="#DejaVuSans-20" x="313.232422"/>
      <use xlink:href="#DejaVuSans-61" x="345.019531"/>
      <use xlink:href="#DejaVuSans-63" x="406.298828"/>
      <use xlink:href="#DejaVuSans-69" x="461.279297"/>
      <use xlink:href="#DejaVuSans-64" x="489.0625"/>
      <use xlink:href="#DejaVuSans-20" x="552.539062"/>
      <use xlink:href="#DejaVuSans-5b" x="584.326172"/>
      <use xlink:href="#DejaVuSans-6d" x="623.339844"/>
      <use xlink:href="#DejaVuSans-6c" x="720.751953"/>
      <use xlink:href="#DejaVuSans-5d" x="748.535156"/>
     </g>
    </g>
   </g>
   <g id="matplotlib.axis_2">
    <g id="ytick_1">
     <g id="line2d_8">
      <defs>
       <path id="m3077250b0c" d="M 0 0 
L -3.5 0 
" style="stroke: #000000; stroke-width: 0.8"/>
      </defs>
      <g>
       <use xlink:href="#m3077250b0c" x="144" y="576.72" style="stroke: #000000; stroke-width: 0.8"/>
      </g>
     </g>
     <g id="text_9">
      <!-- 0 -->
      <g transform="translate(125.5475 583.558594) scale(0.18 -0.18)">
       <use xlink:href="#DejaVuSans-30"/>
      </g>
     </g>
    </g>
    <g id="ytick_2">
     <g id="line2d_9">
      <g>
       <use xlink:href="#m3077250b0c" x="144" y="476.928" style="stroke: #000000; stroke-width: 0.8"/>
      </g>
     </g>
     <g id="text_10">
      <!-- 2 -->
      <g transform="translate(125.5475 483.766594) scale(0.18 -0.18)">
       <use xlink:href="#DejaVuSans-32"/>
      </g>
     </g>
    </g>
    <g id="ytick_3">
     <g id="line2d_10">
      <g>
       <use xlink:href="#m3077250b0c" x="144" y="377.136" style="stroke: #000000; stroke-width: 0.8"/>
      </g>
     </g>
     <g id="text_11">
      <!-- 4 -->
      <g transform="translate(125.5475 383.974594) scale(0.18 -0.18)">
       <defs>
        <path id="DejaVuSans-34" d="M 2419 4116 
L 825 1625 
L 2419 1625 
L 2419 4116 
z
M 2253 4666 
L 3047 4666 
L 3047 1625 
L 3713 1625 
L 3713 1100 
L 3047 1100 
L 3047 0 
L 2419 0 
L 2419 1100 
L 313 1100 
L 313 1709 
L 2253 4666 
z
" transform="scale(0.015625)"/>
       </defs>
       <use xlink:href="#DejaVuSans-34"/>
      </g>
     </g>
    </g>
    <g id="ytick_4">
     <g id="line2d_11">
      <g>
       <use xlink:href="#m3077250b0c" x="144" y="277.344" style="stroke: #000000; stroke-width: 0.8"/>
      </g>
     </g>
     <g id="text_12">
      <!-- 6 -->
      <g transform="translate(125.5475 284.182594) scale(0.18 -0.18)">
       <defs>
        <path id="DejaVuSans-36" d="M 2113 2584 
Q 1688 2584 1439 2293 
Q 1191 2003 1191 1497 
Q 1191 994 1439 701 
Q 1688 409 2113 409 
Q 2538 409 2786 701 
Q 3034 994 3034 1497 
Q 3034 2003 2786 2293 
Q 2538 2584 2113 2584 
z
M 3366 4563 
L 3366 3988 
Q 3128 4100 2886 4159 
Q 2644 4219 2406 4219 
Q 1781 4219 1451 3797 
Q 1122 3375 1075 2522 
Q 1259 2794 1537 2939 
Q 1816 3084 2150 3084 
Q 2853 3084 3261 2657 
Q 3669 2231 3669 1497 
Q 3669 778 3244 343 
Q 2819 -91 2113 -91 
Q 1303 -91 875 529 
Q 447 1150 447 2328 
Q 447 3434 972 4092 
Q 1497 4750 2381 4750 
Q 2619 4750 2861 4703 
Q 3103 4656 3366 4563 
z
" transform="scale(0.015625)"/>
       </defs>
       <use xlink:href="#DejaVuSans-36"/>
      </g>
     </g>
    </g>
    <g id="ytick_5">
     <g id="line2d_12">
      <g>
       <use xlink:href="#m3077250b0c" x="144" y="177.552" style="stroke: #000000; stroke-width: 0.8"/>
      </g>
     </g>
     <g id="text_13">
      <!-- 8 -->
      <g transform="translate(125.5475 184.390594) scale(0.18 -0.18)">
       <defs>
        <path id="DejaVuSans-38" d="M 2034 2216 
Q 1584 2216 1326 1975 
Q 1069 1734 1069 1313 
Q 1069 891 1326 650 
Q 1584 409 2034 409 
Q 2484 409 2743 651 
Q 3003 894 3003 1313 
Q 3003 1734 2745 1975 
Q 2488 2216 2034 2216 
z
M 1403 2484 
Q 997 2584 770 2862 
Q 544 3141 544 3541 
Q 544 4100 942 4425 
Q 1341 4750 2034 4750 
Q 2731 4750 3128 4425 
Q 3525 4100 3525 3541 
Q 3525 3141 3298 2862 
Q 3072 2584 2669 2484 
Q 3125 2378 3379 2068 
Q 3634 1759 3634 1313 
Q 3634 634 3220 271 
Q 2806 -91 2034 -91 
Q 1263 -91 848 271 
Q 434 634 434 1313 
Q 434 1759 690 2068 
Q 947 2378 1403 2484 
z
M 1172 3481 
Q 1172 3119 1398 2916 
Q 1625 2713 2034 2713 
Q 2441 2713 2670 2916 
Q 2900 3119 2900 3481 
Q 2900 3844 2670 4047 
Q 2441 4250 2034 4250 
Q 1625 4250 1398 4047 
Q 1172 3844 1172 3481 
z
" transform="scale(0.015625)"/>
       </defs>
       <use xlink:href="#DejaVuSans-38"/>
      </g>
     </g>
    </g>
    <g id="ytick_6">
     <g id="line2d_13">
      <g>
       <use xlink:href="#m3077250b0c" x="144" y="77.76" style="stroke: #000000; stroke-width: 0.8"/>
      </g>
     </g>
     <g id="text_14">
      <!-- 10 -->
      <g transform="translate(114.095 84.598594) scale(0.18 -0.18)">
       <use xlink:href="#DejaVuSans-31"/>
       <use xlink:href="#DejaVuSans-30" x="63.623047"/>
      </g>
     </g>
    </g>
    <g id="text_15">
     <!-- gran value -->
     <g transform="translate(105.935625 380.65875) rotate(-90) scale(0.2 -0.2)">
      <defs>
       <path id="DejaVuSans-67" d="M 2906 1791 
Q 2906 2416 2648 2759 
Q 2391 3103 1925 3103 
Q 1463 3103 1205 2759 
Q 947 2416 947 1791 
Q 947 1169 1205 825 
Q 1463 481 1925 481 
Q 2391 481 2648 825 
Q 2906 1169 2906 1791 
z
M 3481 434 
Q 3481 -459 3084 -895 
Q 2688 -1331 1869 -1331 
Q 1566 -1331 1297 -1286 
Q 1028 -1241 775 -1147 
L 775 -588 
Q 1028 -725 1275 -790 
Q 1522 -856 1778 -856 
Q 2344 -856 2625 -561 
Q 2906 -266 2906 331 
L 2906 616 
Q 2728 306 2450 153 
Q 2172 0 1784 0 
Q 1141 0 747 490 
Q 353 981 353 1791 
Q 353 2603 747 3093 
Q 1141 3584 1784 3584 
Q 2172 3584 2450 3431 
Q 2728 3278 2906 2969 
L 2906 3500 
L 3481 3500 
L 3481 434 
z
" transform="scale(0.015625)"/>
       <path id="DejaVuSans-72" d="M 2631 2963 
Q 2534 3019 2420 3045 
Q 2306 3072 2169 3072 
Q 1681 3072 1420 2755 
Q 1159 2438 1159 1844 
L 1159 0 
L 581 0 
L 581 3500 
L 1159 3500 
L 1159 2956 
Q 1341 3275 1631 3429 
Q 1922 3584 2338 3584 
Q 2397 3584 2469 3576 
Q 2541 3569 2628 3553 
L 2631 2963 
z
" transform="scale(0.015625)"/>
       <path id="DejaVuSans-6e" d="M 3513 2113 
L 3513 0 
L 2938 0 
L 2938 2094 
Q 2938 2591 2744 2837 
Q 2550 3084 2163 3084 
Q 1697 3084 1428 2787 
Q 1159 2491 1159 1978 
L 1159 0 
L 581 0 
L 581 3500 
L 1159 3500 
L 1159 2956 
Q 1366 3272 1645 3428 
Q 1925 3584 2291 3584 
Q 2894 3584 3203 3211 
Q 3513 2838 3513 2113 
z
" transform="scale(0.015625)"/>
       <path id="DejaVuSans-76" d="M 191 3500 
L 800 3500 
L 1894 563 
L 2988 3500 
L 3597 3500 
L 2284 0 
L 1503 0 
L 191 3500 
z
" transform="scale(0.015625)"/>
       <path id="DejaVuSans-75" d="M 544 1381 
L 544 3500 
L 1119 3500 
L 1119 1403 
Q 1119 906 1312 657 
Q 1506 409 1894 409 
Q 2359 409 2629 706 
Q 2900 1003 2900 1516 
L 2900 3500 
L 3475 3500 
L 3475 0 
L 2900 0 
L 2900 538 
Q 2691 219 2414 64 
Q 2138 -91 1772 -91 
Q 1169 -91 856 284 
Q 544 659 544 1381 
z
M 1991 3584 
L 1991 3584 
z
" transform="scale(0.015625)"/>
      </defs>
      <use xlink:href="#DejaVuSans-67"/>
      <use xlink:href="#DejaVuSans-72" x="63.476562"/>
      <use xlink:href="#DejaVuSans-61" x="104.589844"/>
      <use xlink:href="#DejaVuSans-6e" x="165.869141"/>
      <use xlink:href="#DejaVuSans-20" x="229.248047"/>
      <use xlink:href="#DejaVuSans-76" x="261.035156"/>
      <use xlink:href="#DejaVuSans-61" x="320.214844"/>
      <use xlink:href="#DejaVuSans-6c" x="381.494141"/>
      <use xlink:href="#DejaVuSans-75" x="409.277344"/>
      <use xlink:href="#DejaVuSans-65" x="472.65625"/>
     </g>
    </g>
   </g>
   <g id="line2d_14">
    <path d="M 144 576.719909 
L 279.7056 576.60929 
L 346.6656 576.318783 
L 388.3296 575.931268 
L 416.0064 575.467042 
L 435.648 574.926943 
L 449.9328 574.322448 
L 460.6464 573.65851 
L 468.9792 572.929909 
L 475.5264 572.146138 
L 480.8832 571.288609 
L 485.3472 570.348234 
L 488.9184 569.377837 
L 491.8944 568.356674 
L 494.5728 567.205639 
L 496.9536 565.92604 
L 499.0368 564.532853 
L 500.8224 563.06148 
L 502.3104 561.57405 
L 503.7984 559.772088 
L 505.2864 557.55168 
L 506.4768 555.375038 
L 507.6672 552.726947 
L 508.8576 549.457572 
L 510.048 545.3596 
L 510.9408 541.574813 
L 511.8336 537.012001 
L 512.7264 531.486547 
L 513.6192 524.789983 
L 514.512 516.708943 
L 515.7024 503.469714 
L 516.8928 487.213867 
L 518.0832 468.024701 
L 519.5712 440.471755 
L 521.6544 396.916007 
L 524.3328 335.495663 
L 528.2016 240.935212 
L 533.856 96.504808 
L 537.581667 -1 
L 537.581667 -1 
" clip-path="url(#p7e50aa544d)" style="fill: none; stroke: #1f77b4; stroke-width: 4; stroke-linecap: square"/>
   </g>
   <g id="line2d_15">
    <path d="M 144 576.717896 
L 157.0944 576.337706 
L 176.736 575.587886 
L 194.8896 574.677284 
L 211.5552 573.624994 
L 227.0304 572.43077 
L 241.3152 571.112101 
L 254.7072 569.656741 
L 267.2064 568.076877 
L 278.8128 566.388776 
L 289.5264 564.613261 
L 299.6448 562.716956 
L 309.168 560.709774 
L 318.096 558.604827 
L 326.4288 556.418794 
L 334.464 554.081294 
L 341.904 551.689731 
L 349.0464 549.161789 
L 355.8912 546.498843 
L 362.1408 543.836557 
L 368.0928 541.071399 
L 373.7472 538.212694 
L 379.4016 535.10169 
L 384.7584 531.894505 
L 389.8176 528.606275 
L 394.5792 525.255381 
L 399.3408 521.628265 
L 403.8048 517.949127 
L 408.2688 513.970047 
L 412.4352 509.955776 
L 416.6016 505.619203 
L 420.4704 501.272405 
L 424.3392 496.583861 
L 427.9104 491.920407 
L 431.4816 486.900596 
L 435.0528 481.486645 
L 438.3264 476.141093 
L 441.6 470.391033 
L 444.8736 464.194355 
L 448.1472 457.503513 
L 451.4208 450.264748 
L 454.3968 443.157527 
L 457.3728 435.495806 
L 460.3488 427.221916 
L 463.3248 418.271269 
L 466.3008 408.57158 
L 469.2768 398.042071 
L 471.9552 387.781783 
L 474.6336 376.703948 
L 477.312 364.729064 
L 479.9904 351.770448 
L 482.6688 337.734165 
L 485.3472 322.519203 
L 488.0256 306.017974 
L 490.704 288.117233 
L 493.3824 268.699497 
L 496.0608 247.645029 
L 498.7392 224.834425 
L 501.4176 200.151766 
L 504.096 173.488227 
L 506.7744 144.745958 
L 509.7504 110.271715 
L 512.7264 73.04199 
L 515.7024 33.002184 
L 518.078611 -1 
L 518.078611 -1 
" clip-path="url(#p7e50aa544d)" style="fill: none; stroke: #ff7f0e; stroke-width: 4; stroke-linecap: square"/>
   </g>
   <g id="line2d_16">
    <defs>
     <path id="m8cb33d9866" d="M 0 3 
C 0.795609 3 1.55874 2.683901 2.12132 2.12132 
C 2.683901 1.55874 3 0.795609 3 0 
C 3 -0.795609 2.683901 -1.55874 2.12132 -2.12132 
C 1.55874 -2.683901 0.795609 -3 0 -3 
C -0.795609 -3 -1.55874 -2.683901 -2.12132 -2.12132 
C -2.683901 -1.55874 -3 -0.795609 -3 0 
C -3 0.795609 -2.683901 1.55874 -2.12132 2.12132 
C -1.55874 2.683901 -0.795609 3 0 3 
z
" style="stroke: #bfbf00"/>
    </defs>
    <g clip-path="url(#p7e50aa544d)">
     <use xlink:href="#m8cb33d9866" x="513.9168" y="522.260241" style="fill: #bfbf00; stroke: #bfbf00"/>
     <use xlink:href="#m8cb33d9866" x="516.8928" y="487.213867" style="fill: #bfbf00; stroke: #bfbf00"/>
     <use xlink:href="#m8cb33d9866" x="521.3568" y="403.416615" style="fill: #bfbf00; stroke: #bfbf00"/>
     <use xlink:href="#m8cb33d9866" x="529.0944" y="218.509999" style="fill: #bfbf00; stroke: #bfbf00"/>
    </g>
   </g>
   <g id="line2d_17">
    <path d="M 508.502858 649 
L 540.342078 -1 
" clip-path="url(#p7e50aa544d)" style="fill: none; stroke-dasharray: 14.8,6.4; stroke-dashoffset: 0; stroke: #000000; stroke-width: 4"/>
   </g>
   <g id="line2d_18">
    <g clip-path="url(#p7e50aa544d)">
     <use xlink:href="#m8cb33d9866" x="377.616" y="536.113104" style="fill: #bfbf00; stroke: #bfbf00"/>
     <use xlink:href="#m8cb33d9866" x="416.304" y="505.940386" style="fill: #bfbf00; stroke: #bfbf00"/>
     <use xlink:href="#m8cb33d9866" x="462.7296" y="420.118891" style="fill: #bfbf00; stroke: #bfbf00"/>
     <use xlink:href="#m8cb33d9866" x="496.9536" y="240.242449" style="fill: #bfbf00; stroke: #bfbf00"/>
    </g>
   </g>
   <g id="line2d_19">
    <path d="M 362.736 605.273517 
L 511.8336 251.233893 
" clip-path="url(#p7e50aa544d)" style="fill: none; stroke-dasharray: 14.8,6.4; stroke-dashoffset: 0; stroke: #000000; stroke-width: 4"/>
   </g>
   <g id="line2d_20">
    <path d="M 516 576.72 
L 516 77.76 
" clip-path="url(#p7e50aa544d)" style="fill: none; stroke-dasharray: 7.4,3.2; stroke-dashoffset: 0; stroke: #ff0000; stroke-width: 2"/>
   </g>
   <g id="patch_3">
    <path d="M 144 576.72 
L 144 77.76 
" style="fill: none; stroke: #000000; stroke-width: 0.8; stroke-linejoin: miter; stroke-linecap: square"/>
   </g>
   <g id="patch_4">
    <path d="M 1036.8 576.72 
L 1036.8 77.76 
" style="fill: none; stroke: #000000; stroke-width: 0.8; stroke-linejoin: miter; stroke-linecap: square"/>
   </g>
   <g id="patch_5">
    <path d="M 144 576.72 
L 1036.8 576.72 
" style="fill: none; stroke: #000000; stroke-width: 0.8; stroke-linejoin: miter; stroke-linecap: square"/>
   </g>
   <g id="patch_6">
    <path d="M 144 77.76 
L 1036.8 77.76 
" style="fill: none; stroke: #000000; stroke-width: 0.8; stroke-linejoin: miter; stroke-linecap: square"/>
   </g>
   <g id="text_16">
    <!-- R² (NaHCO$_3$) = 0.987 -->
    <g transform="translate(590.4 377.136) scale(0.12 -0.12)">
     <defs>
      <path id="DejaVuSans-52" d="M 2841 2188 
Q 3044 2119 3236 1894 
Q 3428 1669 3622 1275 
L 4263 0 
L 3584 0 
L 2988 1197 
Q 2756 1666 2539 1819 
Q 2322 1972 1947 1972 
L 1259 1972 
L 1259 0 
L 628 0 
L 628 4666 
L 2053 4666 
Q 2853 4666 3247 4331 
Q 3641 3997 3641 3322 
Q 3641 2881 3436 2590 
Q 3231 2300 2841 2188 
z
M 1259 4147 
L 1259 2491 
L 2053 2491 
Q 2509 2491 2742 2702 
Q 2975 2913 2975 3322 
Q 2975 3731 2742 3939 
Q 2509 4147 2053 4147 
L 1259 4147 
z
" transform="scale(0.015625)"/>
      <path id="DejaVuSans-b2" d="M 838 2444 
L 2163 2444 
L 2163 2088 
L 294 2088 
L 294 2431 
Q 400 2528 597 2703 
Q 1672 3656 1672 3950 
Q 1672 4156 1509 4282 
Q 1347 4409 1081 4409 
Q 919 4409 728 4354 
Q 538 4300 313 4191 
L 313 4575 
Q 553 4663 761 4706 
Q 969 4750 1147 4750 
Q 1600 4750 1872 4544 
Q 2144 4338 2144 4000 
Q 2144 3566 1109 2678 
Q 934 2528 838 2444 
z
" transform="scale(0.015625)"/>
      <path id="DejaVuSans-28" d="M 1984 4856 
Q 1566 4138 1362 3434 
Q 1159 2731 1159 2009 
Q 1159 1288 1364 580 
Q 1569 -128 1984 -844 
L 1484 -844 
Q 1016 -109 783 600 
Q 550 1309 550 2009 
Q 550 2706 781 3412 
Q 1013 4119 1484 4856 
L 1984 4856 
z
" transform="scale(0.015625)"/>
      <path id="DejaVuSans-4e" d="M 628 4666 
L 1478 4666 
L 3547 763 
L 3547 4666 
L 4159 4666 
L 4159 0 
L 3309 0 
L 1241 3903 
L 1241 0 
L 628 0 
L 628 4666 
z
" transform="scale(0.015625)"/>
      <path id="DejaVuSans-48" d="M 628 4666 
L 1259 4666 
L 1259 2753 
L 3553 2753 
L 3553 4666 
L 4184 4666 
L 4184 0 
L 3553 0 
L 3553 2222 
L 1259 2222 
L 1259 0 
L 628 0 
L 628 4666 
z
" transform="scale(0.015625)"/>
      <path id="DejaVuSans-43" d="M 4122 4306 
L 4122 3641 
Q 3803 3938 3442 4084 
Q 3081 4231 2675 4231 
Q 1875 4231 1450 3742 
Q 1025 3253 1025 2328 
Q 1025 1406 1450 917 
Q 1875 428 2675 428 
Q 3081 428 3442 575 
Q 3803 722 4122 1019 
L 4122 359 
Q 3791 134 3420 21 
Q 3050 -91 2638 -91 
Q 1578 -91 968 557 
Q 359 1206 359 2328 
Q 359 3453 968 4101 
Q 1578 4750 2638 4750 
Q 3056 4750 3426 4639 
Q 3797 4528 4122 4306 
z
" transform="scale(0.015625)"/>
      <path id="DejaVuSans-4f" d="M 2522 4238 
Q 1834 4238 1429 3725 
Q 1025 3213 1025 2328 
Q 1025 1447 1429 934 
Q 1834 422 2522 422 
Q 3209 422 3611 934 
Q 4013 1447 4013 2328 
Q 4013 3213 3611 3725 
Q 3209 4238 2522 4238 
z
M 2522 4750 
Q 3503 4750 4090 4092 
Q 4678 3434 4678 2328 
Q 4678 1225 4090 567 
Q 3503 -91 2522 -91 
Q 1538 -91 948 565 
Q 359 1222 359 2328 
Q 359 3434 948 4092 
Q 1538 4750 2522 4750 
z
" transform="scale(0.015625)"/>
      <path id="DejaVuSans-29" d="M 513 4856 
L 1013 4856 
Q 1481 4119 1714 3412 
Q 1947 2706 1947 2009 
Q 1947 1309 1714 600 
Q 1481 -109 1013 -844 
L 513 -844 
Q 928 -128 1133 580 
Q 1338 1288 1338 2009 
Q 1338 2731 1133 3434 
Q 928 4138 513 4856 
z
" transform="scale(0.015625)"/>
      <path id="DejaVuSans-3d" d="M 678 2906 
L 4684 2906 
L 4684 2381 
L 678 2381 
L 678 2906 
z
M 678 1631 
L 4684 1631 
L 4684 1100 
L 678 1100 
L 678 1631 
z
" transform="scale(0.015625)"/>
      <path id="DejaVuSans-2e" d="M 684 794 
L 1344 794 
L 1344 0 
L 684 0 
L 684 794 
z
" transform="scale(0.015625)"/>
      <path id="DejaVuSans-39" d="M 703 97 
L 703 672 
Q 941 559 1184 500 
Q 1428 441 1663 441 
Q 2288 441 2617 861 
Q 2947 1281 2994 2138 
Q 2813 1869 2534 1725 
Q 2256 1581 1919 1581 
Q 1219 1581 811 2004 
Q 403 2428 403 3163 
Q 403 3881 828 4315 
Q 1253 4750 1959 4750 
Q 2769 4750 3195 4129 
Q 3622 3509 3622 2328 
Q 3622 1225 3098 567 
Q 2575 -91 1691 -91 
Q 1453 -91 1209 -44 
Q 966 3 703 97 
z
M 1959 2075 
Q 2384 2075 2632 2365 
Q 2881 2656 2881 3163 
Q 2881 3666 2632 3958 
Q 2384 4250 1959 4250 
Q 1534 4250 1286 3958 
Q 1038 3666 1038 3163 
Q 1038 2656 1286 2365 
Q 1534 2075 1959 2075 
z
" transform="scale(0.015625)"/>
      <path id="DejaVuSans-37" d="M 525 4666 
L 3525 4666 
L 3525 4397 
L 1831 0 
L 1172 0 
L 2766 4134 
L 525 4134 
L 525 4666 
z
" transform="scale(0.015625)"/>
     </defs>
     <use xlink:href="#DejaVuSans-52" transform="translate(0 0.125)"/>
     <use xlink:href="#DejaVuSans-b2" transform="translate(69.482422 0.125)"/>
     <use xlink:href="#DejaVuSans-20" transform="translate(109.570312 0.125)"/>
     <use xlink:href="#DejaVuSans-28" transform="translate(141.357422 0.125)"/>
     <use xlink:href="#DejaVuSans-4e" transform="translate(180.371094 0.125)"/>
     <use xlink:href="#DejaVuSans-61" transform="translate(255.175781 0.125)"/>
     <use xlink:href="#DejaVuSans-48" transform="translate(316.455078 0.125)"/>
     <use xlink:href="#DejaVuSans-43" transform="translate(391.650391 0.125)"/>
     <use xlink:href="#DejaVuSans-4f" transform="translate(461.474609 0.125)"/>
     <use xlink:href="#DejaVuSans-33" transform="translate(541.142578 -16.28125) scale(0.7)"/>
     <use xlink:href="#DejaVuSans-29" transform="translate(588.413086 0.125)"/>
     <use xlink:href="#DejaVuSans-20" transform="translate(627.426758 0.125)"/>
     <use xlink:href="#DejaVuSans-3d" transform="translate(659.213867 0.125)"/>
     <use xlink:href="#DejaVuSans-20" transform="translate(743.00293 0.125)"/>
     <use xlink:href="#DejaVuSans-30" transform="translate(774.790039 0.125)"/>
     <use xlink:href="#DejaVuSans-2e" transform="translate(838.413086 0.125)"/>
     <use xlink:href="#DejaVuSans-39" transform="translate(870.200195 0.125)"/>
     <use xlink:href="#DejaVuSans-38" transform="translate(933.823242 0.125)"/>
     <use xlink:href="#DejaVuSans-37" transform="translate(997.446289 0.125)"/>
    </g>
   </g>
   <g id="text_17">
    <!-- R² (NaAc) = 0.872 -->
    <g transform="translate(292.8 427.032) scale(0.12 -0.12)">
     <defs>
      <path id="DejaVuSans-41" d="M 2188 4044 
L 1331 1722 
L 3047 1722 
L 2188 4044 
z
M 1831 4666 
L 2547 4666 
L 4325 0 
L 3669 0 
L 3244 1197 
L 1141 1197 
L 716 0 
L 50 0 
L 1831 4666 
z
" transform="scale(0.015625)"/>
     </defs>
     <use xlink:href="#DejaVuSans-52"/>
     <use xlink:href="#DejaVuSans-b2" x="69.482422"/>
     <use xlink:href="#DejaVuSans-20" x="109.570312"/>
     <use xlink:href="#DejaVuSans-28" x="141.357422"/>
     <use xlink:href="#DejaVuSans-4e" x="180.371094"/>
     <use xlink:href="#DejaVuSans-61" x="255.175781"/>
     <use xlink:href="#DejaVuSans-41" x="316.455078"/>
     <use xlink:href="#DejaVuSans-63" x="383.113281"/>
     <use xlink:href="#DejaVuSans-29" x="438.09375"/>
     <use xlink:href="#DejaVuSans-20" x="477.107422"/>
     <use xlink:href="#DejaVuSans-3d" x="508.894531"/>
     <use xlink:href="#DejaVuSans-20" x="592.683594"/>
     <use xlink:href="#DejaVuSans-30" x="624.470703"/>
     <use xlink:href="#DejaVuSans-2e" x="688.09375"/>
     <use xlink:href="#DejaVuSans-38" x="719.880859"/>
     <use xlink:href="#DejaVuSans-37" x="783.503906"/>
     <use xlink:href="#DejaVuSans-32" x="847.126953"/>
    </g>
   </g>
   <g id="legend_1">
    <g id="patch_7">
     <path d="M 581.22 191.617312 
L 1024.2 191.617312 
Q 1027.8 191.617312 1027.8 188.017312 
L 1027.8 90.36 
Q 1027.8 86.76 1024.2 86.76 
L 581.22 86.76 
Q 577.62 86.76 577.62 90.36 
L 577.62 188.017312 
Q 577.62 191.617312 581.22 191.617312 
z
" style="fill: #ffffff; opacity: 0.8; stroke: #cccccc; stroke-linejoin: miter"/>
    </g>
    <g id="line2d_21">
     <path d="M 584.82 101.34 
L 602.82 101.34 
L 620.82 101.34 
" style="fill: none; stroke: #1f77b4; stroke-width: 4; stroke-linecap: square"/>
    </g>
    <g id="text_18">
     <!-- NaHCO$_3$ solution in atm eq v$_{acid}$=12.37 mL -->
     <g transform="translate(635.22 107.64) scale(0.18 -0.18)">
      <defs>
       <path id="DejaVuSans-73" d="M 2834 3397 
L 2834 2853 
Q 2591 2978 2328 3040 
Q 2066 3103 1784 3103 
Q 1356 3103 1142 2972 
Q 928 2841 928 2578 
Q 928 2378 1081 2264 
Q 1234 2150 1697 2047 
L 1894 2003 
Q 2506 1872 2764 1633 
Q 3022 1394 3022 966 
Q 3022 478 2636 193 
Q 2250 -91 1575 -91 
Q 1294 -91 989 -36 
Q 684 19 347 128 
L 347 722 
Q 666 556 975 473 
Q 1284 391 1588 391 
Q 1994 391 2212 530 
Q 2431 669 2431 922 
Q 2431 1156 2273 1281 
Q 2116 1406 1581 1522 
L 1381 1569 
Q 847 1681 609 1914 
Q 372 2147 372 2553 
Q 372 3047 722 3315 
Q 1072 3584 1716 3584 
Q 2034 3584 2315 3537 
Q 2597 3491 2834 3397 
z
" transform="scale(0.015625)"/>
       <path id="DejaVuSans-6f" d="M 1959 3097 
Q 1497 3097 1228 2736 
Q 959 2375 959 1747 
Q 959 1119 1226 758 
Q 1494 397 1959 397 
Q 2419 397 2687 759 
Q 2956 1122 2956 1747 
Q 2956 2369 2687 2733 
Q 2419 3097 1959 3097 
z
M 1959 3584 
Q 2709 3584 3137 3096 
Q 3566 2609 3566 1747 
Q 3566 888 3137 398 
Q 2709 -91 1959 -91 
Q 1206 -91 779 398 
Q 353 888 353 1747 
Q 353 2609 779 3096 
Q 1206 3584 1959 3584 
z
" transform="scale(0.015625)"/>
       <path id="DejaVuSans-74" d="M 1172 4494 
L 1172 3500 
L 2356 3500 
L 2356 3053 
L 1172 3053 
L 1172 1153 
Q 1172 725 1289 603 
Q 1406 481 1766 481 
L 2356 481 
L 2356 0 
L 1766 0 
Q 1100 0 847 248 
Q 594 497 594 1153 
L 594 3053 
L 172 3053 
L 172 3500 
L 594 3500 
L 594 4494 
L 1172 4494 
z
" transform="scale(0.015625)"/>
       <path id="DejaVuSans-71" d="M 947 1747 
Q 947 1113 1208 752 
Q 1469 391 1925 391 
Q 2381 391 2643 752 
Q 2906 1113 2906 1747 
Q 2906 2381 2643 2742 
Q 2381 3103 1925 3103 
Q 1469 3103 1208 2742 
Q 947 2381 947 1747 
z
M 2906 525 
Q 2725 213 2448 61 
Q 2172 -91 1784 -91 
Q 1150 -91 751 415 
Q 353 922 353 1747 
Q 353 2572 751 3078 
Q 1150 3584 1784 3584 
Q 2172 3584 2448 3432 
Q 2725 3281 2906 2969 
L 2906 3500 
L 3481 3500 
L 3481 -1331 
L 2906 -1331 
L 2906 525 
z
" transform="scale(0.015625)"/>
       <path id="DejaVuSans-Oblique-61" d="M 3438 1997 
L 3047 0 
L 2472 0 
L 2578 531 
Q 2325 219 2001 64 
Q 1678 -91 1281 -91 
Q 834 -91 548 182 
Q 263 456 263 884 
Q 263 1497 752 1853 
Q 1241 2209 2100 2209 
L 2900 2209 
L 2931 2363 
Q 2938 2388 2941 2417 
Q 2944 2447 2944 2509 
Q 2944 2788 2717 2942 
Q 2491 3097 2081 3097 
Q 1800 3097 1504 3025 
Q 1209 2953 897 2809 
L 997 3341 
Q 1322 3463 1633 3523 
Q 1944 3584 2234 3584 
Q 2853 3584 3176 3315 
Q 3500 3047 3500 2534 
Q 3500 2431 3484 2292 
Q 3469 2153 3438 1997 
z
M 2816 1759 
L 2241 1759 
Q 1534 1759 1195 1570 
Q 856 1381 856 984 
Q 856 709 1029 553 
Q 1203 397 1509 397 
Q 1978 397 2328 733 
Q 2678 1069 2791 1631 
L 2816 1759 
z
" transform="scale(0.015625)"/>
       <path id="DejaVuSans-Oblique-63" d="M 3431 3366 
L 3316 2797 
Q 3109 2947 2876 3022 
Q 2644 3097 2394 3097 
Q 2119 3097 1870 3000 
Q 1622 2903 1453 2725 
Q 1184 2453 1037 2087 
Q 891 1722 891 1331 
Q 891 859 1127 628 
Q 1363 397 1844 397 
Q 2081 397 2348 469 
Q 2616 541 2906 684 
L 2797 116 
Q 2547 13 2283 -39 
Q 2019 -91 1741 -91 
Q 1044 -91 669 257 
Q 294 606 294 1253 
Q 294 1797 489 2255 
Q 684 2713 1069 3078 
Q 1331 3328 1684 3456 
Q 2038 3584 2456 3584 
Q 2700 3584 2940 3529 
Q 3181 3475 3431 3366 
z
" transform="scale(0.015625)"/>
       <path id="DejaVuSans-Oblique-69" d="M 1172 4863 
L 1747 4863 
L 1606 4134 
L 1031 4134 
L 1172 4863 
z
M 909 3500 
L 1484 3500 
L 800 0 
L 225 0 
L 909 3500 
z
" transform="scale(0.015625)"/>
       <path id="DejaVuSans-Oblique-64" d="M 2675 525 
Q 2444 222 2128 65 
Q 1813 -91 1428 -91 
Q 903 -91 598 267 
Q 294 625 294 1247 
Q 294 1766 478 2236 
Q 663 2706 1013 3078 
Q 1244 3325 1534 3454 
Q 1825 3584 2144 3584 
Q 2481 3584 2739 3421 
Q 2997 3259 3138 2956 
L 3513 4863 
L 4091 4863 
L 3144 0 
L 2566 0 
L 2675 525 
z
M 891 1350 
Q 891 897 1095 644 
Q 1300 391 1663 391 
Q 1931 391 2161 520 
Q 2391 650 2566 903 
Q 2750 1166 2856 1509 
Q 2963 1853 2963 2188 
Q 2963 2622 2758 2865 
Q 2553 3109 2194 3109 
Q 1922 3109 1687 2981 
Q 1453 2853 1288 2613 
Q 1106 2353 998 2009 
Q 891 1666 891 1350 
z
" transform="scale(0.015625)"/>
       <path id="DejaVuSans-4c" d="M 628 4666 
L 1259 4666 
L 1259 531 
L 3531 531 
L 3531 0 
L 628 0 
L 628 4666 
z
" transform="scale(0.015625)"/>
      </defs>
      <use xlink:href="#DejaVuSans-4e" transform="translate(0 0.015625)"/>
      <use xlink:href="#DejaVuSans-61" transform="translate(74.804688 0.015625)"/>
      <use xlink:href="#DejaVuSans-48" transform="translate(136.083984 0.015625)"/>
      <use xlink:href="#DejaVuSans-43" transform="translate(211.279297 0.015625)"/>
      <use xlink:href="#DejaVuSans-4f" transform="translate(281.103516 0.015625)"/>
      <use xlink:href="#DejaVuSans-33" transform="translate(360.771484 -16.390625) scale(0.7)"/>
      <use xlink:href="#DejaVuSans-20" transform="translate(408.041992 0.015625)"/>
      <use xlink:href="#DejaVuSans-73" transform="translate(439.829102 0.015625)"/>
      <use xlink:href="#DejaVuSans-6f" transform="translate(491.928711 0.015625)"/>
      <use xlink:href="#DejaVuSans-6c" transform="translate(553.110352 0.015625)"/>
      <use xlink:href="#DejaVuSans-75" transform="translate(580.893555 0.015625)"/>
      <use xlink:href="#DejaVuSans-74" transform="translate(644.272461 0.015625)"/>
      <use xlink:href="#DejaVuSans-69" transform="translate(683.481445 0.015625)"/>
      <use xlink:href="#DejaVuSans-6f" transform="translate(711.264648 0.015625)"/>
      <use xlink:href="#DejaVuSans-6e" transform="translate(772.446289 0.015625)"/>
      <use xlink:href="#DejaVuSans-20" transform="translate(835.825195 0.015625)"/>
      <use xlink:href="#DejaVuSans-69" transform="translate(867.612305 0.015625)"/>
      <use xlink:href="#DejaVuSans-6e" transform="translate(895.395508 0.015625)"/>
      <use xlink:href="#DejaVuSans-20" transform="translate(958.774414 0.015625)"/>
      <use xlink:href="#DejaVuSans-61" transform="translate(990.561523 0.015625)"/>
      <use xlink:href="#DejaVuSans-74" transform="translate(1051.84082 0.015625)"/>
      <use xlink:href="#DejaVuSans-6d" transform="translate(1091.049805 0.015625)"/>
      <use xlink:href="#DejaVuSans-20" transform="translate(1188.461914 0.015625)"/>
      <use xlink:href="#DejaVuSans-65" transform="translate(1220.249023 0.015625)"/>
      <use xlink:href="#DejaVuSans-71" transform="translate(1281.772461 0.015625)"/>
      <use xlink:href="#DejaVuSans-20" transform="translate(1345.249023 0.015625)"/>
      <use xlink:href="#DejaVuSans-76" transform="translate(1377.036133 0.015625)"/>
      <use xlink:href="#DejaVuSans-Oblique-61" transform="translate(1437.172852 -16.390625) scale(0.7)"/>
      <use xlink:href="#DejaVuSans-Oblique-63" transform="translate(1480.068359 -16.390625) scale(0.7)"/>
      <use xlink:href="#DejaVuSans-Oblique-69" transform="translate(1518.554688 -16.390625) scale(0.7)"/>
      <use xlink:href="#DejaVuSans-Oblique-64" transform="translate(1538.00293 -16.390625) scale(0.7)"/>
      <use xlink:href="#DejaVuSans-3d" transform="translate(1585.170898 0.015625)"/>
      <use xlink:href="#DejaVuSans-31" transform="translate(1668.959961 0.015625)"/>
      <use xlink:href="#DejaVuSans-32" transform="translate(1732.583008 0.015625)"/>
      <use xlink:href="#DejaVuSans-2e" transform="translate(1796.206055 0.015625)"/>
      <use xlink:href="#DejaVuSans-33" transform="translate(1827.993164 0.015625)"/>
      <use xlink:href="#DejaVuSans-37" transform="translate(1891.616211 0.015625)"/>
      <use xlink:href="#DejaVuSans-20" transform="translate(1955.239258 0.015625)"/>
      <use xlink:href="#DejaVuSans-6d" transform="translate(1987.026367 0.015625)"/>
      <use xlink:href="#DejaVuSans-4c" transform="translate(2084.438477 0.015625)"/>
     </g>
    </g>
    <g id="line2d_22">
     <path d="M 584.82 127.797188 
L 602.82 127.797188 
L 620.82 127.797188 
" style="fill: none; stroke: #ff7f0e; stroke-width: 4; stroke-linecap: square"/>
    </g>
    <g id="text_19">
     <!-- Na(Acetate) solution v$_{acid}$=7.75 mL -->
     <g transform="translate(635.22 134.097188) scale(0.18 -0.18)">
      <use xlink:href="#DejaVuSans-4e" transform="translate(0 0.015625)"/>
      <use xlink:href="#DejaVuSans-61" transform="translate(74.804688 0.015625)"/>
      <use xlink:href="#DejaVuSans-28" transform="translate(136.083984 0.015625)"/>
      <use xlink:href="#DejaVuSans-41" transform="translate(175.097656 0.015625)"/>
      <use xlink:href="#DejaVuSans-63" transform="translate(243.505859 0.015625)"/>
      <use xlink:href="#DejaVuSans-65" transform="translate(298.486328 0.015625)"/>
      <use xlink:href="#DejaVuSans-74" transform="translate(360.009766 0.015625)"/>
      <use xlink:href="#DejaVuSans-61" transform="translate(399.21875 0.015625)"/>
      <use xlink:href="#DejaVuSans-74" transform="translate(460.498047 0.015625)"/>
      <use xlink:href="#DejaVuSans-65" transform="translate(499.707031 0.015625)"/>
      <use xlink:href="#DejaVuSans-29" transform="translate(561.230469 0.015625)"/>
      <use xlink:href="#DejaVuSans-20" transform="translate(600.244141 0.015625)"/>
      <use xlink:href="#DejaVuSans-73" transform="translate(632.03125 0.015625)"/>
      <use xlink:href="#DejaVuSans-6f" transform="translate(684.130859 0.015625)"/>
      <use xlink:href="#DejaVuSans-6c" transform="translate(745.3125 0.015625)"/>
      <use xlink:href="#DejaVuSans-75" transform="translate(773.095703 0.015625)"/>
      <use xlink:href="#DejaVuSans-74" transform="translate(836.474609 0.015625)"/>
      <use xlink:href="#DejaVuSans-69" transform="translate(875.683594 0.015625)"/>
      <use xlink:href="#DejaVuSans-6f" transform="translate(903.466797 0.015625)"/>
      <use xlink:href="#DejaVuSans-6e" transform="translate(964.648438 0.015625)"/>
      <use xlink:href="#DejaVuSans-20" transform="translate(1028.027344 0.015625)"/>
      <use xlink:href="#DejaVuSans-76" transform="translate(1059.814453 0.015625)"/>
      <use xlink:href="#DejaVuSans-Oblique-61" transform="translate(1119.951172 -16.390625) scale(0.7)"/>
      <use xlink:href="#DejaVuSans-Oblique-63" transform="translate(1162.84668 -16.390625) scale(0.7)"/>
      <use xlink:href="#DejaVuSans-Oblique-69" transform="translate(1201.333008 -16.390625) scale(0.7)"/>
      <use xlink:href="#DejaVuSans-Oblique-64" transform="translate(1220.78125 -16.390625) scale(0.7)"/>
      <use xlink:href="#DejaVuSans-3d" transform="translate(1267.949219 0.015625)"/>
      <use xlink:href="#DejaVuSans-37" transform="translate(1351.738281 0.015625)"/>
      <use xlink:href="#DejaVuSans-2e" transform="translate(1415.361328 0.015625)"/>
      <use xlink:href="#DejaVuSans-37" transform="translate(1439.398438 0.015625)"/>
      <use xlink:href="#DejaVuSans-35" transform="translate(1503.021484 0.015625)"/>
      <use xlink:href="#DejaVuSans-20" transform="translate(1566.644531 0.015625)"/>
      <use xlink:href="#DejaVuSans-6d" transform="translate(1598.431641 0.015625)"/>
      <use xlink:href="#DejaVuSans-4c" transform="translate(1695.84375 0.015625)"/>
     </g>
    </g>
    <g id="line2d_23">
     <path d="M 584.82 166.167562 
L 602.82 166.167562 
L 620.82 166.167562 
" style="fill: none; stroke-dasharray: 7.4,3.2; stroke-dashoffset: 0; stroke: #ff0000; stroke-width: 2"/>
    </g>
    <g id="text_20">
     <!-- theoretical value  -->
     <g transform="translate(635.22 160.517812) scale(0.18 -0.18)">
      <defs>
       <path id="DejaVuSans-68" d="M 3513 2113 
L 3513 0 
L 2938 0 
L 2938 2094 
Q 2938 2591 2744 2837 
Q 2550 3084 2163 3084 
Q 1697 3084 1428 2787 
Q 1159 2491 1159 1978 
L 1159 0 
L 581 0 
L 581 4863 
L 1159 4863 
L 1159 2956 
Q 1366 3272 1645 3428 
Q 1925 3584 2291 3584 
Q 2894 3584 3203 3211 
Q 3513 2838 3513 2113 
z
" transform="scale(0.015625)"/>
      </defs>
      <use xlink:href="#DejaVuSans-74"/>
      <use xlink:href="#DejaVuSans-68" x="39.208984"/>
      <use xlink:href="#DejaVuSans-65" x="102.587891"/>
      <use xlink:href="#DejaVuSans-6f" x="164.111328"/>
      <use xlink:href="#DejaVuSans-72" x="225.292969"/>
      <use xlink:href="#DejaVuSans-65" x="264.15625"/>
      <use xlink:href="#DejaVuSans-74" x="325.679688"/>
      <use xlink:href="#DejaVuSans-69" x="364.888672"/>
      <use xlink:href="#DejaVuSans-63" x="392.671875"/>
      <use xlink:href="#DejaVuSans-61" x="447.652344"/>
      <use xlink:href="#DejaVuSans-6c" x="508.931641"/>
      <use xlink:href="#DejaVuSans-20" x="536.714844"/>
      <use xlink:href="#DejaVuSans-76" x="568.501953"/>
      <use xlink:href="#DejaVuSans-61" x="627.681641"/>
      <use xlink:href="#DejaVuSans-6c" x="688.960938"/>
      <use xlink:href="#DejaVuSans-75" x="716.744141"/>
      <use xlink:href="#DejaVuSans-65" x="780.123047"/>
      <use xlink:href="#DejaVuSans-20" x="841.646484"/>
     </g>
     <!--  v$_{acid}$=12.50 mL -->
     <g transform="translate(635.22 180.673875) scale(0.18 -0.18)">
      <use xlink:href="#DejaVuSans-20" transform="translate(0 0.78125)"/>
      <use xlink:href="#DejaVuSans-76" transform="translate(31.787109 0.78125)"/>
      <use xlink:href="#DejaVuSans-Oblique-61" transform="translate(91.923828 -15.625) scale(0.7)"/>
      <use xlink:href="#DejaVuSans-Oblique-63" transform="translate(134.819336 -15.625) scale(0.7)"/>
      <use xlink:href="#DejaVuSans-Oblique-69" transform="translate(173.305664 -15.625) scale(0.7)"/>
      <use xlink:href="#DejaVuSans-Oblique-64" transform="translate(192.753906 -15.625) scale(0.7)"/>
      <use xlink:href="#DejaVuSans-3d" transform="translate(239.921875 0.78125)"/>
      <use xlink:href="#DejaVuSans-31" transform="translate(323.710938 0.78125)"/>
      <use xlink:href="#DejaVuSans-32" transform="translate(387.333984 0.78125)"/>
      <use xlink:href="#DejaVuSans-2e" transform="translate(450.957031 0.78125)"/>
      <use xlink:href="#DejaVuSans-35" transform="translate(482.744141 0.78125)"/>
      <use xlink:href="#DejaVuSans-30" transform="translate(546.367188 0.78125)"/>
      <use xlink:href="#DejaVuSans-20" transform="translate(609.990234 0.78125)"/>
      <use xlink:href="#DejaVuSans-6d" transform="translate(641.777344 0.78125)"/>
      <use xlink:href="#DejaVuSans-4c" transform="translate(739.189453 0.78125)"/>
     </g>
    </g>
   </g>
  </g>
 </g>
 <defs>
  <clipPath id="p7e50aa544d">
   <rect x="144" y="77.76" width="892.8" height="498.96"/>
  </clipPath>
 </defs>
</svg>
