<?xml version="1.0" encoding="utf-8" standalone="no"?>
<!DOCTYPE svg PUBLIC "-//W3C//DTD SVG 1.1//EN"
  "http://www.w3.org/Graphics/SVG/1.1/DTD/svg11.dtd">
<svg xmlns:xlink="http://www.w3.org/1999/xlink" width="1152pt" height="648pt" viewBox="0 0 1152 648" xmlns="http://www.w3.org/2000/svg" version="1.1">
 <metadata>
  <rdf:RDF xmlns:dc="http://purl.org/dc/elements/1.1/" xmlns:cc="http://creativecommons.org/ns#" xmlns:rdf="http://www.w3.org/1999/02/22-rdf-syntax-ns#">
   <cc:Work>
    <dc:type rdf:resource="http://purl.org/dc/dcmitype/StillImage"/>
    <dc:date>2025-03-11T15:11:50.599793</dc:date>
    <dc:format>image/svg+xml</dc:format>
    <dc:creator>
     <cc:Agent>
      <dc:title>Matplotlib v3.9.3, https://matplotlib.org/</dc:title>
     </cc:Agent>
    </dc:creator>
   </cc:Work>
  </rdf:RDF>
 </metadata>
 <defs>
  <style type="text/css">*{stroke-linejoin: round; stroke-linecap: butt}</style>
 </defs>
 <g id="figure_1">
  <g id="patch_1">
   <path d="M 0 648 
L 1152 648 
L 1152 0 
L 0 0 
z
" style="fill: #ffffff"/>
  </g>
  <g id="axes_1">
   <g id="patch_2">
    <path d="M 144 576.72 
L 1036.8 576.72 
L 1036.8 77.76 
L 144 77.76 
z
" style="fill: #ffffff"/>
   </g>
   <g id="matplotlib.axis_1">
    <g id="xtick_1">
     <g id="line2d_1">
      <defs>
       <path id="m0207de4848" d="M 0 0 
L 0 3.5 
" style="stroke: #000000; stroke-width: 0.8"/>
      </defs>
      <g>
       <use xlink:href="#m0207de4848" x="184.581818" y="576.72" style="stroke: #000000; stroke-width: 0.8"/>
      </g>
     </g>
     <g id="text_1">
      <!-- 0 -->
      <g transform="translate(178.855568 597.397187) scale(0.18 -0.18)">
       <defs>
        <path id="DejaVuSans-30" d="M 2034 4250 
Q 1547 4250 1301 3770 
Q 1056 3291 1056 2328 
Q 1056 1369 1301 889 
Q 1547 409 2034 409 
Q 2525 409 2770 889 
Q 3016 1369 3016 2328 
Q 3016 3291 2770 3770 
Q 2525 4250 2034 4250 
z
M 2034 4750 
Q 2819 4750 3233 4129 
Q 3647 3509 3647 2328 
Q 3647 1150 3233 529 
Q 2819 -91 2034 -91 
Q 1250 -91 836 529 
Q 422 1150 422 2328 
Q 422 3509 836 4129 
Q 1250 4750 2034 4750 
z
" transform="scale(0.015625)"/>
       </defs>
       <use xlink:href="#DejaVuSans-30"/>
      </g>
     </g>
    </g>
    <g id="xtick_2">
     <g id="line2d_2">
      <g>
       <use xlink:href="#m0207de4848" x="320.306963" y="576.72" style="stroke: #000000; stroke-width: 0.8"/>
      </g>
     </g>
     <g id="text_2">
      <!-- 5 -->
      <g transform="translate(314.580713 597.397187) scale(0.18 -0.18)">
       <defs>
        <path id="DejaVuSans-35" d="M 691 4666 
L 3169 4666 
L 3169 4134 
L 1269 4134 
L 1269 2991 
Q 1406 3038 1543 3061 
Q 1681 3084 1819 3084 
Q 2600 3084 3056 2656 
Q 3513 2228 3513 1497 
Q 3513 744 3044 326 
Q 2575 -91 1722 -91 
Q 1428 -91 1123 -41 
Q 819 9 494 109 
L 494 744 
Q 775 591 1075 516 
Q 1375 441 1709 441 
Q 2250 441 2565 725 
Q 2881 1009 2881 1497 
Q 2881 1984 2565 2268 
Q 2250 2553 1709 2553 
Q 1456 2553 1204 2497 
Q 953 2441 691 2322 
L 691 4666 
z
" transform="scale(0.015625)"/>
       </defs>
       <use xlink:href="#DejaVuSans-35"/>
      </g>
     </g>
    </g>
    <g id="xtick_3">
     <g id="line2d_3">
      <g>
       <use xlink:href="#m0207de4848" x="456.032107" y="576.72" style="stroke: #000000; stroke-width: 0.8"/>
      </g>
     </g>
     <g id="text_3">
      <!-- 10 -->
      <g transform="translate(444.579607 597.397187) scale(0.18 -0.18)">
       <defs>
        <path id="DejaVuSans-31" d="M 794 531 
L 1825 531 
L 1825 4091 
L 703 3866 
L 703 4441 
L 1819 4666 
L 2450 4666 
L 2450 531 
L 3481 531 
L 3481 0 
L 794 0 
L 794 531 
z
" transform="scale(0.015625)"/>
       </defs>
       <use xlink:href="#DejaVuSans-31"/>
       <use xlink:href="#DejaVuSans-30" x="63.623047"/>
      </g>
     </g>
    </g>
    <g id="xtick_4">
     <g id="line2d_4">
      <g>
       <use xlink:href="#m0207de4848" x="591.757251" y="576.72" style="stroke: #000000; stroke-width: 0.8"/>
      </g>
     </g>
     <g id="text_4">
      <!-- 15 -->
      <g transform="translate(580.304751 597.397187) scale(0.18 -0.18)">
       <use xlink:href="#DejaVuSans-31"/>
       <use xlink:href="#DejaVuSans-35" x="63.623047"/>
      </g>
     </g>
    </g>
    <g id="xtick_5">
     <g id="line2d_5">
      <g>
       <use xlink:href="#m0207de4848" x="727.482396" y="576.72" style="stroke: #000000; stroke-width: 0.8"/>
      </g>
     </g>
     <g id="text_5">
      <!-- 20 -->
      <g transform="translate(716.029896 597.397187) scale(0.18 -0.18)">
       <defs>
        <path id="DejaVuSans-32" d="M 1228 531 
L 3431 531 
L 3431 0 
L 469 0 
L 469 531 
Q 828 903 1448 1529 
Q 2069 2156 2228 2338 
Q 2531 2678 2651 2914 
Q 2772 3150 2772 3378 
Q 2772 3750 2511 3984 
Q 2250 4219 1831 4219 
Q 1534 4219 1204 4116 
Q 875 4013 500 3803 
L 500 4441 
Q 881 4594 1212 4672 
Q 1544 4750 1819 4750 
Q 2544 4750 2975 4387 
Q 3406 4025 3406 3419 
Q 3406 3131 3298 2873 
Q 3191 2616 2906 2266 
Q 2828 2175 2409 1742 
Q 1991 1309 1228 531 
z
" transform="scale(0.015625)"/>
       </defs>
       <use xlink:href="#DejaVuSans-32"/>
       <use xlink:href="#DejaVuSans-30" x="63.623047"/>
      </g>
     </g>
    </g>
    <g id="xtick_6">
     <g id="line2d_6">
      <g>
       <use xlink:href="#m0207de4848" x="863.20754" y="576.72" style="stroke: #000000; stroke-width: 0.8"/>
      </g>
     </g>
     <g id="text_6">
      <!-- 25 -->
      <g transform="translate(851.75504 597.397187) scale(0.18 -0.18)">
       <use xlink:href="#DejaVuSans-32"/>
       <use xlink:href="#DejaVuSans-35" x="63.623047"/>
      </g>
     </g>
    </g>
    <g id="xtick_7">
     <g id="line2d_7">
      <g>
       <use xlink:href="#m0207de4848" x="998.932685" y="576.72" style="stroke: #000000; stroke-width: 0.8"/>
      </g>
     </g>
     <g id="text_7">
      <!-- 30 -->
      <g transform="translate(987.480185 597.397187) scale(0.18 -0.18)">
       <defs>
        <path id="DejaVuSans-33" d="M 2597 2516 
Q 3050 2419 3304 2112 
Q 3559 1806 3559 1356 
Q 3559 666 3084 287 
Q 2609 -91 1734 -91 
Q 1441 -91 1130 -33 
Q 819 25 488 141 
L 488 750 
Q 750 597 1062 519 
Q 1375 441 1716 441 
Q 2309 441 2620 675 
Q 2931 909 2931 1356 
Q 2931 1769 2642 2001 
Q 2353 2234 1838 2234 
L 1294 2234 
L 1294 2753 
L 1863 2753 
Q 2328 2753 2575 2939 
Q 2822 3125 2822 3475 
Q 2822 3834 2567 4026 
Q 2313 4219 1838 4219 
Q 1578 4219 1281 4162 
Q 984 4106 628 3988 
L 628 4550 
Q 988 4650 1302 4700 
Q 1616 4750 1894 4750 
Q 2613 4750 3031 4423 
Q 3450 4097 3450 3541 
Q 3450 3153 3228 2886 
Q 3006 2619 2597 2516 
z
" transform="scale(0.015625)"/>
       </defs>
       <use xlink:href="#DejaVuSans-33"/>
       <use xlink:href="#DejaVuSans-30" x="63.623047"/>
      </g>
     </g>
    </g>
    <g id="text_8">
     <!-- added acid [mmol] -->
     <g transform="translate(495.782812 620.3375) scale(0.2 -0.2)">
      <defs>
       <path id="DejaVuSans-61" d="M 2194 1759 
Q 1497 1759 1228 1600 
Q 959 1441 959 1056 
Q 959 750 1161 570 
Q 1363 391 1709 391 
Q 2188 391 2477 730 
Q 2766 1069 2766 1631 
L 2766 1759 
L 2194 1759 
z
M 3341 1997 
L 3341 0 
L 2766 0 
L 2766 531 
Q 2569 213 2275 61 
Q 1981 -91 1556 -91 
Q 1019 -91 701 211 
Q 384 513 384 1019 
Q 384 1609 779 1909 
Q 1175 2209 1959 2209 
L 2766 2209 
L 2766 2266 
Q 2766 2663 2505 2880 
Q 2244 3097 1772 3097 
Q 1472 3097 1187 3025 
Q 903 2953 641 2809 
L 641 3341 
Q 956 3463 1253 3523 
Q 1550 3584 1831 3584 
Q 2591 3584 2966 3190 
Q 3341 2797 3341 1997 
z
" transform="scale(0.015625)"/>
       <path id="DejaVuSans-64" d="M 2906 2969 
L 2906 4863 
L 3481 4863 
L 3481 0 
L 2906 0 
L 2906 525 
Q 2725 213 2448 61 
Q 2172 -91 1784 -91 
Q 1150 -91 751 415 
Q 353 922 353 1747 
Q 353 2572 751 3078 
Q 1150 3584 1784 3584 
Q 2172 3584 2448 3432 
Q 2725 3281 2906 2969 
z
M 947 1747 
Q 947 1113 1208 752 
Q 1469 391 1925 391 
Q 2381 391 2643 752 
Q 2906 1113 2906 1747 
Q 2906 2381 2643 2742 
Q 2381 3103 1925 3103 
Q 1469 3103 1208 2742 
Q 947 2381 947 1747 
z
" transform="scale(0.015625)"/>
       <path id="DejaVuSans-65" d="M 3597 1894 
L 3597 1613 
L 953 1613 
Q 991 1019 1311 708 
Q 1631 397 2203 397 
Q 2534 397 2845 478 
Q 3156 559 3463 722 
L 3463 178 
Q 3153 47 2828 -22 
Q 2503 -91 2169 -91 
Q 1331 -91 842 396 
Q 353 884 353 1716 
Q 353 2575 817 3079 
Q 1281 3584 2069 3584 
Q 2775 3584 3186 3129 
Q 3597 2675 3597 1894 
z
M 3022 2063 
Q 3016 2534 2758 2815 
Q 2500 3097 2075 3097 
Q 1594 3097 1305 2825 
Q 1016 2553 972 2059 
L 3022 2063 
z
" transform="scale(0.015625)"/>
       <path id="DejaVuSans-20" transform="scale(0.015625)"/>
       <path id="DejaVuSans-63" d="M 3122 3366 
L 3122 2828 
Q 2878 2963 2633 3030 
Q 2388 3097 2138 3097 
Q 1578 3097 1268 2742 
Q 959 2388 959 1747 
Q 959 1106 1268 751 
Q 1578 397 2138 397 
Q 2388 397 2633 464 
Q 2878 531 3122 666 
L 3122 134 
Q 2881 22 2623 -34 
Q 2366 -91 2075 -91 
Q 1284 -91 818 406 
Q 353 903 353 1747 
Q 353 2603 823 3093 
Q 1294 3584 2113 3584 
Q 2378 3584 2631 3529 
Q 2884 3475 3122 3366 
z
" transform="scale(0.015625)"/>
       <path id="DejaVuSans-69" d="M 603 3500 
L 1178 3500 
L 1178 0 
L 603 0 
L 603 3500 
z
M 603 4863 
L 1178 4863 
L 1178 4134 
L 603 4134 
L 603 4863 
z
" transform="scale(0.015625)"/>
       <path id="DejaVuSans-5b" d="M 550 4863 
L 1875 4863 
L 1875 4416 
L 1125 4416 
L 1125 -397 
L 1875 -397 
L 1875 -844 
L 550 -844 
L 550 4863 
z
" transform="scale(0.015625)"/>
       <path id="DejaVuSans-6d" d="M 3328 2828 
Q 3544 3216 3844 3400 
Q 4144 3584 4550 3584 
Q 5097 3584 5394 3201 
Q 5691 2819 5691 2113 
L 5691 0 
L 5113 0 
L 5113 2094 
Q 5113 2597 4934 2840 
Q 4756 3084 4391 3084 
Q 3944 3084 3684 2787 
Q 3425 2491 3425 1978 
L 3425 0 
L 2847 0 
L 2847 2094 
Q 2847 2600 2669 2842 
Q 2491 3084 2119 3084 
Q 1678 3084 1418 2786 
Q 1159 2488 1159 1978 
L 1159 0 
L 581 0 
L 581 3500 
L 1159 3500 
L 1159 2956 
Q 1356 3278 1631 3431 
Q 1906 3584 2284 3584 
Q 2666 3584 2933 3390 
Q 3200 3197 3328 2828 
z
" transform="scale(0.015625)"/>
       <path id="DejaVuSans-6f" d="M 1959 3097 
Q 1497 3097 1228 2736 
Q 959 2375 959 1747 
Q 959 1119 1226 758 
Q 1494 397 1959 397 
Q 2419 397 2687 759 
Q 2956 1122 2956 1747 
Q 2956 2369 2687 2733 
Q 2419 3097 1959 3097 
z
M 1959 3584 
Q 2709 3584 3137 3096 
Q 3566 2609 3566 1747 
Q 3566 888 3137 398 
Q 2709 -91 1959 -91 
Q 1206 -91 779 398 
Q 353 888 353 1747 
Q 353 2609 779 3096 
Q 1206 3584 1959 3584 
z
" transform="scale(0.015625)"/>
       <path id="DejaVuSans-6c" d="M 603 4863 
L 1178 4863 
L 1178 0 
L 603 0 
L 603 4863 
z
" transform="scale(0.015625)"/>
       <path id="DejaVuSans-5d" d="M 1947 4863 
L 1947 -844 
L 622 -844 
L 622 -397 
L 1369 -397 
L 1369 4416 
L 622 4416 
L 622 4863 
L 1947 4863 
z
" transform="scale(0.015625)"/>
      </defs>
      <use xlink:href="#DejaVuSans-61"/>
      <use xlink:href="#DejaVuSans-64" x="61.279297"/>
      <use xlink:href="#DejaVuSans-64" x="124.755859"/>
      <use xlink:href="#DejaVuSans-65" x="188.232422"/>
      <use xlink:href="#DejaVuSans-64" x="249.755859"/>
      <use xlink:href="#DejaVuSans-20" x="313.232422"/>
      <use xlink:href="#DejaVuSans-61" x="345.019531"/>
      <use xlink:href="#DejaVuSans-63" x="406.298828"/>
      <use xlink:href="#DejaVuSans-69" x="461.279297"/>
      <use xlink:href="#DejaVuSans-64" x="489.0625"/>
      <use xlink:href="#DejaVuSans-20" x="552.539062"/>
      <use xlink:href="#DejaVuSans-5b" x="584.326172"/>
      <use xlink:href="#DejaVuSans-6d" x="623.339844"/>
      <use xlink:href="#DejaVuSans-6d" x="720.751953"/>
      <use xlink:href="#DejaVuSans-6f" x="818.164062"/>
      <use xlink:href="#DejaVuSans-6c" x="879.345703"/>
      <use xlink:href="#DejaVuSans-5d" x="907.128906"/>
     </g>
    </g>
   </g>
   <g id="matplotlib.axis_2">
    <g id="ytick_1">
     <g id="line2d_8">
      <defs>
       <path id="m422e91a1ca" d="M 0 0 
L -3.5 0 
" style="stroke: #000000; stroke-width: 0.8"/>
      </defs>
      <g>
       <use xlink:href="#m422e91a1ca" x="144" y="543.869797" style="stroke: #000000; stroke-width: 0.8"/>
      </g>
     </g>
     <g id="text_9">
      <!-- 2 -->
      <g transform="translate(125.5475 550.708391) scale(0.18 -0.18)">
       <use xlink:href="#DejaVuSans-32"/>
      </g>
     </g>
    </g>
    <g id="ytick_2">
     <g id="line2d_9">
      <g>
       <use xlink:href="#m422e91a1ca" x="144" y="454.750758" style="stroke: #000000; stroke-width: 0.8"/>
      </g>
     </g>
     <g id="text_10">
      <!-- 4 -->
      <g transform="translate(125.5475 461.589352) scale(0.18 -0.18)">
       <defs>
        <path id="DejaVuSans-34" d="M 2419 4116 
L 825 1625 
L 2419 1625 
L 2419 4116 
z
M 2253 4666 
L 3047 4666 
L 3047 1625 
L 3713 1625 
L 3713 1100 
L 3047 1100 
L 3047 0 
L 2419 0 
L 2419 1100 
L 313 1100 
L 313 1709 
L 2253 4666 
z
" transform="scale(0.015625)"/>
       </defs>
       <use xlink:href="#DejaVuSans-34"/>
      </g>
     </g>
    </g>
    <g id="ytick_3">
     <g id="line2d_10">
      <g>
       <use xlink:href="#m422e91a1ca" x="144" y="365.63172" style="stroke: #000000; stroke-width: 0.8"/>
      </g>
     </g>
     <g id="text_11">
      <!-- 6 -->
      <g transform="translate(125.5475 372.470314) scale(0.18 -0.18)">
       <defs>
        <path id="DejaVuSans-36" d="M 2113 2584 
Q 1688 2584 1439 2293 
Q 1191 2003 1191 1497 
Q 1191 994 1439 701 
Q 1688 409 2113 409 
Q 2538 409 2786 701 
Q 3034 994 3034 1497 
Q 3034 2003 2786 2293 
Q 2538 2584 2113 2584 
z
M 3366 4563 
L 3366 3988 
Q 3128 4100 2886 4159 
Q 2644 4219 2406 4219 
Q 1781 4219 1451 3797 
Q 1122 3375 1075 2522 
Q 1259 2794 1537 2939 
Q 1816 3084 2150 3084 
Q 2853 3084 3261 2657 
Q 3669 2231 3669 1497 
Q 3669 778 3244 343 
Q 2819 -91 2113 -91 
Q 1303 -91 875 529 
Q 447 1150 447 2328 
Q 447 3434 972 4092 
Q 1497 4750 2381 4750 
Q 2619 4750 2861 4703 
Q 3103 4656 3366 4563 
z
" transform="scale(0.015625)"/>
       </defs>
       <use xlink:href="#DejaVuSans-36"/>
      </g>
     </g>
    </g>
    <g id="ytick_4">
     <g id="line2d_11">
      <g>
       <use xlink:href="#m422e91a1ca" x="144" y="276.512681" style="stroke: #000000; stroke-width: 0.8"/>
      </g>
     </g>
     <g id="text_12">
      <!-- 8 -->
      <g transform="translate(125.5475 283.351275) scale(0.18 -0.18)">
       <defs>
        <path id="DejaVuSans-38" d="M 2034 2216 
Q 1584 2216 1326 1975 
Q 1069 1734 1069 1313 
Q 1069 891 1326 650 
Q 1584 409 2034 409 
Q 2484 409 2743 651 
Q 3003 894 3003 1313 
Q 3003 1734 2745 1975 
Q 2488 2216 2034 2216 
z
M 1403 2484 
Q 997 2584 770 2862 
Q 544 3141 544 3541 
Q 544 4100 942 4425 
Q 1341 4750 2034 4750 
Q 2731 4750 3128 4425 
Q 3525 4100 3525 3541 
Q 3525 3141 3298 2862 
Q 3072 2584 2669 2484 
Q 3125 2378 3379 2068 
Q 3634 1759 3634 1313 
Q 3634 634 3220 271 
Q 2806 -91 2034 -91 
Q 1263 -91 848 271 
Q 434 634 434 1313 
Q 434 1759 690 2068 
Q 947 2378 1403 2484 
z
M 1172 3481 
Q 1172 3119 1398 2916 
Q 1625 2713 2034 2713 
Q 2441 2713 2670 2916 
Q 2900 3119 2900 3481 
Q 2900 3844 2670 4047 
Q 2441 4250 2034 4250 
Q 1625 4250 1398 4047 
Q 1172 3844 1172 3481 
z
" transform="scale(0.015625)"/>
       </defs>
       <use xlink:href="#DejaVuSans-38"/>
      </g>
     </g>
    </g>
    <g id="ytick_5">
     <g id="line2d_12">
      <g>
       <use xlink:href="#m422e91a1ca" x="144" y="187.393643" style="stroke: #000000; stroke-width: 0.8"/>
      </g>
     </g>
     <g id="text_13">
      <!-- 10 -->
      <g transform="translate(114.095 194.232237) scale(0.18 -0.18)">
       <use xlink:href="#DejaVuSans-31"/>
       <use xlink:href="#DejaVuSans-30" x="63.623047"/>
      </g>
     </g>
    </g>
    <g id="ytick_6">
     <g id="line2d_13">
      <g>
       <use xlink:href="#m422e91a1ca" x="144" y="98.274604" style="stroke: #000000; stroke-width: 0.8"/>
      </g>
     </g>
     <g id="text_14">
      <!-- 12 -->
      <g transform="translate(114.095 105.113198) scale(0.18 -0.18)">
       <use xlink:href="#DejaVuSans-31"/>
       <use xlink:href="#DejaVuSans-32" x="63.623047"/>
      </g>
     </g>
    </g>
    <g id="text_15">
     <!-- pH -->
     <g transform="translate(105.935625 341.10875) rotate(-90) scale(0.2 -0.2)">
      <defs>
       <path id="DejaVuSans-70" d="M 1159 525 
L 1159 -1331 
L 581 -1331 
L 581 3500 
L 1159 3500 
L 1159 2969 
Q 1341 3281 1617 3432 
Q 1894 3584 2278 3584 
Q 2916 3584 3314 3078 
Q 3713 2572 3713 1747 
Q 3713 922 3314 415 
Q 2916 -91 2278 -91 
Q 1894 -91 1617 61 
Q 1341 213 1159 525 
z
M 3116 1747 
Q 3116 2381 2855 2742 
Q 2594 3103 2138 3103 
Q 1681 3103 1420 2742 
Q 1159 2381 1159 1747 
Q 1159 1113 1420 752 
Q 1681 391 2138 391 
Q 2594 391 2855 752 
Q 3116 1113 3116 1747 
z
" transform="scale(0.015625)"/>
       <path id="DejaVuSans-48" d="M 628 4666 
L 1259 4666 
L 1259 2753 
L 3553 2753 
L 3553 4666 
L 4184 4666 
L 4184 0 
L 3553 0 
L 3553 2222 
L 1259 2222 
L 1259 0 
L 628 0 
L 628 4666 
z
" transform="scale(0.015625)"/>
      </defs>
      <use xlink:href="#DejaVuSans-70"/>
      <use xlink:href="#DejaVuSans-48" x="63.476562"/>
     </g>
    </g>
   </g>
   <g id="line2d_14">
    <path d="M 184.581818 100.44 
L 211.726847 102.479264 
L 236.157373 104.518495 
L 257.873396 106.531164 
L 279.589419 108.777653 
L 298.590939 110.982929 
L 314.877957 113.096348 
L 328.450471 115.052921 
L 342.022986 117.229756 
L 352.880997 119.166699 
L 363.739009 121.319265 
L 374.59702 123.741548 
L 382.740529 125.780579 
L 390.884038 128.06001 
L 399.027546 130.644202 
L 404.456552 132.581078 
L 409.885558 134.733577 
L 415.314564 137.155794 
L 420.743569 139.92514 
L 423.458072 141.474155 
L 426.172575 143.158027 
L 428.887078 145.002497 
L 431.601581 147.041461 
L 434.316084 149.320824 
L 437.030587 151.904948 
L 439.74509 154.888094 
L 442.459593 158.416401 
L 445.174095 162.73469 
L 447.888598 168.301916 
L 450.603101 176.148462 
L 453.317604 189.562153 
L 458.74661 452.740757 
L 461.461113 466.145949 
L 464.175616 473.983937 
L 466.890119 479.542638 
L 469.604621 483.852442 
L 472.319124 487.372309 
L 475.033627 490.347063 
L 477.74813 492.922844 
L 480.462633 495.193912 
L 483.177136 497.224628 
L 485.891639 499.060898 
L 488.606142 500.736618 
L 494.035147 503.703633 
L 499.464153 506.271805 
L 504.893159 508.535393 
L 510.322165 510.558753 
L 515.751171 512.387788 
L 523.894679 514.838814 
L 532.038188 517.009502 
L 540.181697 518.957095 
L 551.039708 521.276709 
L 561.89772 523.34246 
L 572.755731 525.2041 
L 586.328246 527.298736 
L 599.90076 529.183005 
L 616.187777 531.219369 
L 635.189298 533.344744 
L 654.190818 535.252453 
L 675.906841 537.217085 
L 700.337367 539.203985 
L 727.482396 541.187078 
L 757.341928 543.147442 
L 789.915962 545.071855 
L 827.919003 547.088376 
L 868.636546 549.027734 
L 914.783095 551.002239 
L 966.35865 552.981984 
L 996.218182 554.036711 
L 996.218182 554.036711 
" clip-path="url(#p405dcd868c)" style="fill: none; stroke: #1f77b4; stroke-width: 4; stroke-linecap: square"/>
   </g>
   <g id="line2d_15">
    <path d="M 184.581818 228.238529 
L 187.296321 231.105793 
L 190.010824 234.369059 
L 192.725327 238.15471 
L 195.43983 242.647496 
L 198.154333 248.111527 
L 200.868836 254.862983 
L 203.583338 262.993475 
L 206.297841 271.720112 
L 209.012344 279.651245 
L 211.726847 286.181815 
L 214.44135 291.478762 
L 217.155853 295.856551 
L 219.870356 299.564532 
L 222.584859 302.775643 
L 225.299362 305.608394 
L 228.013864 308.145587 
L 230.728367 310.446623 
L 233.44287 312.555267 
L 238.871876 316.319953 
L 244.300882 319.62524 
L 249.729888 322.588935 
L 255.158893 325.290346 
L 260.587899 327.785422 
L 268.731408 331.228045 
L 276.874916 334.395953 
L 287.732928 338.309633 
L 298.590939 341.972867 
L 312.163454 346.325321 
L 339.308483 354.723348 
L 358.310003 360.713066 
L 371.882517 365.241795 
L 382.740529 369.129235 
L 390.884038 372.270201 
L 399.027546 375.677302 
L 404.456552 378.1423 
L 409.885558 380.806818 
L 415.314564 383.724664 
L 420.743569 386.972065 
L 426.172575 390.662362 
L 428.887078 392.725748 
L 431.601581 394.974963 
L 434.316084 397.452942 
L 437.030587 400.218808 
L 439.74509 403.35698 
L 442.459593 406.993404 
L 445.174095 411.326351 
L 447.888598 416.688247 
L 450.603101 423.670131 
L 453.317604 433.278817 
L 458.74661 458.819183 
L 461.461113 468.230527 
L 464.175616 474.994001 
L 466.890119 480.131475 
L 469.604621 484.236664 
L 472.319124 487.642579 
L 475.033627 490.547618 
L 477.74813 493.07773 
L 480.462633 495.317289 
L 483.177136 497.325366 
L 485.891639 499.14483 
L 488.606142 500.807733 
L 494.035147 503.756811 
L 499.464153 506.313308 
L 504.893159 508.568875 
L 510.322165 510.586489 
L 515.751171 512.411267 
L 523.894679 514.857713 
L 532.038188 517.025208 
L 540.181697 518.970487 
L 551.039708 521.28789 
L 561.89772 523.352072 
L 572.755731 525.212558 
L 586.328246 527.306135 
L 599.90076 529.18963 
L 616.187777 531.225311 
L 635.189298 533.35011 
L 654.190818 535.2574 
L 675.906841 537.221679 
L 700.337367 539.208287 
L 727.482396 541.191142 
L 757.341928 543.151315 
L 789.915962 545.075573 
L 827.919003 547.091961 
L 868.636546 549.031215 
L 914.783095 551.005633 
L 966.35865 552.985306 
L 996.218182 554.04 
L 996.218182 554.04 
" clip-path="url(#p405dcd868c)" style="fill: none; stroke: #ff7f0e; stroke-width: 4; stroke-linecap: square"/>
   </g>
   <g id="line2d_16">
    <path d="M 184.581818 245.054779 
L 187.296321 258.375969 
L 190.010824 274.091224 
L 192.725327 286.089955 
L 195.43983 294.340523 
L 198.154333 300.43506 
L 200.868836 305.249231 
L 203.583338 309.235594 
L 206.297841 312.648365 
L 209.012344 315.642413 
L 211.726847 318.318446 
L 214.44135 320.745431 
L 217.155853 322.972593 
L 222.584859 326.964037 
L 228.013864 330.493173 
L 233.44287 333.684828 
L 238.871876 336.62231 
L 247.015385 340.675907 
L 255.158893 344.424328 
L 266.016905 349.106877 
L 279.589419 354.668142 
L 309.448951 366.772483 
L 320.306963 371.436997 
L 328.450471 375.131821 
L 336.59398 379.052509 
L 344.737489 383.253604 
L 352.880997 387.785072 
L 361.024506 392.677054 
L 369.168015 397.916756 
L 377.311523 403.430621 
L 420.743569 433.609888 
L 431.601581 441.312829 
L 442.459593 449.305761 
L 464.175616 465.511325 
L 472.319124 471.149211 
L 477.74813 474.667528 
L 483.177136 477.983246 
L 488.606142 481.101235 
L 494.035147 484.032803 
L 502.178656 488.111053 
L 510.322165 491.84761 
L 518.465673 495.283183 
L 526.609182 498.451225 
L 534.752691 501.379019 
L 542.896199 504.089326 
L 551.039708 506.601805 
L 561.89772 509.674117 
L 572.755731 512.46313 
L 583.613743 515.002375 
L 594.471754 517.321873 
L 608.044269 519.952502 
L 621.616783 522.326125 
L 635.189298 524.480503 
L 651.476315 526.820262 
L 667.763332 528.933709 
L 686.764853 531.160357 
L 705.766373 533.171679 
L 727.482396 535.251096 
L 751.912922 537.358672 
L 779.057951 539.463732 
L 808.917483 541.543785 
L 841.491517 543.583102 
L 876.780055 545.571265 
L 917.497598 547.632486 
L 960.929644 549.607215 
L 996.218182 551.070798 
L 996.218182 551.070798 
" clip-path="url(#p405dcd868c)" style="fill: none; stroke: #2ca02c; stroke-width: 4; stroke-linecap: square"/>
   </g>
   <g id="line2d_17">
    <path d="M 184.581818 228.597789 
L 187.296321 231.37506 
L 190.010824 234.518944 
L 192.725327 238.141731 
L 195.43983 242.405887 
L 198.154333 247.543682 
L 200.868836 253.848273 
L 203.583338 261.495251 
L 206.297841 269.993868 
L 209.012344 278.063917 
L 211.726847 284.861075 
L 214.44135 290.396501 
L 217.155853 294.957696 
L 219.870356 298.803386 
L 222.584859 302.118933 
L 225.299362 305.032324 
L 228.013864 307.63292 
L 230.728367 309.98461 
L 233.44287 312.13426 
L 236.157373 314.117091 
L 241.586379 317.684649 
L 247.015385 320.842221 
L 252.44439 323.690582 
L 257.873396 326.298863 
L 263.302402 328.716562 
L 271.445911 332.063627 
L 279.589419 335.152566 
L 290.447431 338.976735 
L 301.305442 342.560204 
L 314.877957 346.816713 
L 339.308483 354.180325 
L 363.739009 361.592064 
L 377.311523 365.910913 
L 388.169535 369.552127 
L 399.027546 373.422989 
L 407.171055 376.518578 
L 415.314564 379.815874 
L 423.458072 383.350231 
L 431.601581 387.155867 
L 439.74509 391.259901 
L 447.888598 395.673825 
L 456.032107 400.385835 
L 464.175616 405.361368 
L 472.319124 410.558105 
L 483.177136 417.795613 
L 491.320645 423.493894 
L 496.74965 427.474259 
L 502.178656 431.659071 
L 507.607662 436.123483 
L 513.036668 440.971399 
L 518.465673 446.342206 
L 521.180176 449.276517 
L 523.894679 452.405866 
L 526.609182 455.746672 
L 529.323685 459.301939 
L 534.752691 466.929129 
L 540.181697 474.671904 
L 542.896199 478.308901 
L 545.610702 481.684865 
L 548.325205 484.773047 
L 551.039708 487.578096 
L 553.754211 490.121804 
L 556.468714 492.432486 
L 559.183217 494.538946 
L 561.89772 496.467697 
L 564.612223 498.242002 
L 570.041228 501.404004 
L 575.470234 504.150612 
L 580.89924 506.571899 
L 586.328246 508.733182 
L 591.757251 510.682743 
L 599.90076 513.287421 
L 608.044269 515.585687 
L 616.187777 517.640552 
L 624.331286 519.497689 
L 635.189298 521.72399 
L 646.047309 523.718127 
L 659.619824 525.949058 
L 673.192338 527.945254 
L 689.479355 530.092146 
L 705.766373 532.019447 
L 724.767893 534.043573 
L 746.483916 536.117254 
L 770.914442 538.204305 
L 798.059471 540.278168 
L 827.919003 542.320108 
L 860.493037 544.317458 
L 895.781575 546.262123 
L 936.499118 548.277015 
L 982.645667 550.321391 
L 996.218182 550.881659 
L 996.218182 550.881659 
" clip-path="url(#p405dcd868c)" style="fill: none; stroke: #d62728; stroke-width: 4; stroke-linecap: square"/>
   </g>
   <g id="line2d_18">
    <path d="M 184.581818 228.600237 
L 187.296321 231.377545 
L 190.010824 234.521648 
L 192.725327 238.145043 
L 195.43983 242.410686 
L 198.154333 247.552015 
L 200.868836 253.864975 
L 203.583338 261.530233 
L 206.297841 270.058524 
L 209.012344 278.158473 
L 211.726847 284.976885 
L 214.44135 290.526279 
L 217.155853 295.097292 
L 219.870356 298.950582 
L 222.584859 302.272521 
L 225.299362 305.191631 
L 228.013864 307.797568 
L 230.728367 310.154397 
L 233.44287 312.309096 
L 236.157373 314.296957 
L 241.586379 317.874716 
L 247.015385 321.042889 
L 252.44439 323.902432 
L 257.873396 326.522623 
L 263.302402 328.953089 
L 271.445911 332.321198 
L 279.589419 335.433876 
L 290.447431 339.294856 
L 301.305442 342.922557 
L 317.59246 348.095344 
L 363.739009 362.536688 
L 374.59702 366.207664 
L 385.455032 370.129434 
L 393.598541 373.301634 
L 401.742049 376.743492 
L 407.171055 379.231949 
L 412.600061 381.91733 
L 418.029067 384.848114 
L 423.458072 388.089343 
L 428.887078 391.729923 
L 431.601581 393.736676 
L 434.316084 395.892489 
L 437.030587 398.219589 
L 439.74509 400.742914 
L 442.459593 403.488897 
L 445.174095 406.482375 
L 447.888598 409.740324 
L 450.603101 413.261438 
L 456.032107 420.923015 
L 461.461113 428.790148 
L 464.175616 432.545633 
L 466.890119 436.100433 
L 469.604621 439.437039 
L 472.319124 442.561057 
L 475.033627 445.490075 
L 480.462633 450.851639 
L 485.891639 455.691569 
L 491.320645 460.147467 
L 496.74965 464.32092 
L 504.893159 470.203169 
L 513.036668 475.758569 
L 521.180176 481.050881 
L 529.323685 486.076952 
L 537.467194 490.792083 
L 542.896199 493.736034 
L 548.325205 496.506651 
L 553.754211 499.09913 
L 559.183217 501.515066 
L 564.612223 503.76122 
L 572.755731 506.835023 
L 580.89924 509.591287 
L 589.042749 512.07222 
L 597.186257 514.316692 
L 605.329766 516.358571 
L 616.187777 518.814823 
L 627.045789 521.016686 
L 637.903801 523.007507 
L 651.476315 525.250444 
L 665.048829 527.267777 
L 681.335847 529.445091 
L 697.622864 531.404275 
L 716.624384 533.464738 
L 738.340407 535.577194 
L 762.770933 537.703662 
L 789.915962 539.816192 
L 819.775494 541.895089 
L 852.349529 543.927105 
L 887.638066 545.903852 
L 928.35561 547.950082 
L 971.787656 549.908438 
L 996.218182 550.924814 
L 996.218182 550.924814 
" clip-path="url(#p405dcd868c)" style="fill: none; stroke: #9467bd; stroke-width: 4; stroke-linecap: square"/>
   </g>
   <g id="patch_3">
    <path d="M 144 576.72 
L 144 77.76 
" style="fill: none; stroke: #000000; stroke-width: 0.8; stroke-linejoin: miter; stroke-linecap: square"/>
   </g>
   <g id="patch_4">
    <path d="M 1036.8 576.72 
L 1036.8 77.76 
" style="fill: none; stroke: #000000; stroke-width: 0.8; stroke-linejoin: miter; stroke-linecap: square"/>
   </g>
   <g id="patch_5">
    <path d="M 144 576.72 
L 1036.8 576.72 
" style="fill: none; stroke: #000000; stroke-width: 0.8; stroke-linejoin: miter; stroke-linecap: square"/>
   </g>
   <g id="patch_6">
    <path d="M 144 77.76 
L 1036.8 77.76 
" style="fill: none; stroke: #000000; stroke-width: 0.8; stroke-linejoin: miter; stroke-linecap: square"/>
   </g>
   <g id="text_16">
    <!-- Different solutions organic inorganic -->
    <g transform="translate(408.682812 71.76) scale(0.2 -0.2)">
     <defs>
      <path id="DejaVuSans-44" d="M 1259 4147 
L 1259 519 
L 2022 519 
Q 2988 519 3436 956 
Q 3884 1394 3884 2338 
Q 3884 3275 3436 3711 
Q 2988 4147 2022 4147 
L 1259 4147 
z
M 628 4666 
L 1925 4666 
Q 3281 4666 3915 4102 
Q 4550 3538 4550 2338 
Q 4550 1131 3912 565 
Q 3275 0 1925 0 
L 628 0 
L 628 4666 
z
" transform="scale(0.015625)"/>
      <path id="DejaVuSans-66" d="M 2375 4863 
L 2375 4384 
L 1825 4384 
Q 1516 4384 1395 4259 
Q 1275 4134 1275 3809 
L 1275 3500 
L 2222 3500 
L 2222 3053 
L 1275 3053 
L 1275 0 
L 697 0 
L 697 3053 
L 147 3053 
L 147 3500 
L 697 3500 
L 697 3744 
Q 697 4328 969 4595 
Q 1241 4863 1831 4863 
L 2375 4863 
z
" transform="scale(0.015625)"/>
      <path id="DejaVuSans-72" d="M 2631 2963 
Q 2534 3019 2420 3045 
Q 2306 3072 2169 3072 
Q 1681 3072 1420 2755 
Q 1159 2438 1159 1844 
L 1159 0 
L 581 0 
L 581 3500 
L 1159 3500 
L 1159 2956 
Q 1341 3275 1631 3429 
Q 1922 3584 2338 3584 
Q 2397 3584 2469 3576 
Q 2541 3569 2628 3553 
L 2631 2963 
z
" transform="scale(0.015625)"/>
      <path id="DejaVuSans-6e" d="M 3513 2113 
L 3513 0 
L 2938 0 
L 2938 2094 
Q 2938 2591 2744 2837 
Q 2550 3084 2163 3084 
Q 1697 3084 1428 2787 
Q 1159 2491 1159 1978 
L 1159 0 
L 581 0 
L 581 3500 
L 1159 3500 
L 1159 2956 
Q 1366 3272 1645 3428 
Q 1925 3584 2291 3584 
Q 2894 3584 3203 3211 
Q 3513 2838 3513 2113 
z
" transform="scale(0.015625)"/>
      <path id="DejaVuSans-74" d="M 1172 4494 
L 1172 3500 
L 2356 3500 
L 2356 3053 
L 1172 3053 
L 1172 1153 
Q 1172 725 1289 603 
Q 1406 481 1766 481 
L 2356 481 
L 2356 0 
L 1766 0 
Q 1100 0 847 248 
Q 594 497 594 1153 
L 594 3053 
L 172 3053 
L 172 3500 
L 594 3500 
L 594 4494 
L 1172 4494 
z
" transform="scale(0.015625)"/>
      <path id="DejaVuSans-73" d="M 2834 3397 
L 2834 2853 
Q 2591 2978 2328 3040 
Q 2066 3103 1784 3103 
Q 1356 3103 1142 2972 
Q 928 2841 928 2578 
Q 928 2378 1081 2264 
Q 1234 2150 1697 2047 
L 1894 2003 
Q 2506 1872 2764 1633 
Q 3022 1394 3022 966 
Q 3022 478 2636 193 
Q 2250 -91 1575 -91 
Q 1294 -91 989 -36 
Q 684 19 347 128 
L 347 722 
Q 666 556 975 473 
Q 1284 391 1588 391 
Q 1994 391 2212 530 
Q 2431 669 2431 922 
Q 2431 1156 2273 1281 
Q 2116 1406 1581 1522 
L 1381 1569 
Q 847 1681 609 1914 
Q 372 2147 372 2553 
Q 372 3047 722 3315 
Q 1072 3584 1716 3584 
Q 2034 3584 2315 3537 
Q 2597 3491 2834 3397 
z
" transform="scale(0.015625)"/>
      <path id="DejaVuSans-75" d="M 544 1381 
L 544 3500 
L 1119 3500 
L 1119 1403 
Q 1119 906 1312 657 
Q 1506 409 1894 409 
Q 2359 409 2629 706 
Q 2900 1003 2900 1516 
L 2900 3500 
L 3475 3500 
L 3475 0 
L 2900 0 
L 2900 538 
Q 2691 219 2414 64 
Q 2138 -91 1772 -91 
Q 1169 -91 856 284 
Q 544 659 544 1381 
z
M 1991 3584 
L 1991 3584 
z
" transform="scale(0.015625)"/>
      <path id="DejaVuSans-67" d="M 2906 1791 
Q 2906 2416 2648 2759 
Q 2391 3103 1925 3103 
Q 1463 3103 1205 2759 
Q 947 2416 947 1791 
Q 947 1169 1205 825 
Q 1463 481 1925 481 
Q 2391 481 2648 825 
Q 2906 1169 2906 1791 
z
M 3481 434 
Q 3481 -459 3084 -895 
Q 2688 -1331 1869 -1331 
Q 1566 -1331 1297 -1286 
Q 1028 -1241 775 -1147 
L 775 -588 
Q 1028 -725 1275 -790 
Q 1522 -856 1778 -856 
Q 2344 -856 2625 -561 
Q 2906 -266 2906 331 
L 2906 616 
Q 2728 306 2450 153 
Q 2172 0 1784 0 
Q 1141 0 747 490 
Q 353 981 353 1791 
Q 353 2603 747 3093 
Q 1141 3584 1784 3584 
Q 2172 3584 2450 3431 
Q 2728 3278 2906 2969 
L 2906 3500 
L 3481 3500 
L 3481 434 
z
" transform="scale(0.015625)"/>
     </defs>
     <use xlink:href="#DejaVuSans-44"/>
     <use xlink:href="#DejaVuSans-69" x="77.001953"/>
     <use xlink:href="#DejaVuSans-66" x="104.785156"/>
     <use xlink:href="#DejaVuSans-66" x="139.990234"/>
     <use xlink:href="#DejaVuSans-65" x="175.195312"/>
     <use xlink:href="#DejaVuSans-72" x="236.71875"/>
     <use xlink:href="#DejaVuSans-65" x="275.582031"/>
     <use xlink:href="#DejaVuSans-6e" x="337.105469"/>
     <use xlink:href="#DejaVuSans-74" x="400.484375"/>
     <use xlink:href="#DejaVuSans-20" x="439.693359"/>
     <use xlink:href="#DejaVuSans-73" x="471.480469"/>
     <use xlink:href="#DejaVuSans-6f" x="523.580078"/>
     <use xlink:href="#DejaVuSans-6c" x="584.761719"/>
     <use xlink:href="#DejaVuSans-75" x="612.544922"/>
     <use xlink:href="#DejaVuSans-74" x="675.923828"/>
     <use xlink:href="#DejaVuSans-69" x="715.132812"/>
     <use xlink:href="#DejaVuSans-6f" x="742.916016"/>
     <use xlink:href="#DejaVuSans-6e" x="804.097656"/>
     <use xlink:href="#DejaVuSans-73" x="867.476562"/>
     <use xlink:href="#DejaVuSans-20" x="919.576172"/>
     <use xlink:href="#DejaVuSans-6f" x="951.363281"/>
     <use xlink:href="#DejaVuSans-72" x="1012.544922"/>
     <use xlink:href="#DejaVuSans-67" x="1051.908203"/>
     <use xlink:href="#DejaVuSans-61" x="1115.384766"/>
     <use xlink:href="#DejaVuSans-6e" x="1176.664062"/>
     <use xlink:href="#DejaVuSans-69" x="1240.042969"/>
     <use xlink:href="#DejaVuSans-63" x="1267.826172"/>
     <use xlink:href="#DejaVuSans-20" x="1322.806641"/>
     <use xlink:href="#DejaVuSans-69" x="1354.59375"/>
     <use xlink:href="#DejaVuSans-6e" x="1382.376953"/>
     <use xlink:href="#DejaVuSans-6f" x="1445.755859"/>
     <use xlink:href="#DejaVuSans-72" x="1506.9375"/>
     <use xlink:href="#DejaVuSans-67" x="1546.300781"/>
     <use xlink:href="#DejaVuSans-61" x="1609.777344"/>
     <use xlink:href="#DejaVuSans-6e" x="1671.056641"/>
     <use xlink:href="#DejaVuSans-69" x="1734.435547"/>
     <use xlink:href="#DejaVuSans-63" x="1762.21875"/>
    </g>
   </g>
   <g id="legend_1">
    <g id="patch_7">
     <path d="M 472.3425 284.731312 
L 1024.2 284.731312 
Q 1027.8 284.731312 1027.8 281.131312 
L 1027.8 90.36 
Q 1027.8 86.76 1024.2 86.76 
L 472.3425 86.76 
Q 468.7425 86.76 468.7425 90.36 
L 468.7425 281.131312 
Q 468.7425 284.731312 472.3425 284.731312 
z
" style="fill: #ffffff; opacity: 0.8; stroke: #cccccc; stroke-linejoin: miter"/>
    </g>
    <g id="line2d_19">
     <path d="M 475.9425 101.337187 
L 493.9425 101.337187 
L 511.9425 101.337187 
" style="fill: none; stroke: #1f77b4; stroke-width: 4; stroke-linecap: square"/>
    </g>
    <g id="text_17">
     <!-- pure NaOH=10 mmol/kg solution -->
     <g transform="translate(526.3425 107.637187) scale(0.18 -0.18)">
      <defs>
       <path id="DejaVuSans-4e" d="M 628 4666 
L 1478 4666 
L 3547 763 
L 3547 4666 
L 4159 4666 
L 4159 0 
L 3309 0 
L 1241 3903 
L 1241 0 
L 628 0 
L 628 4666 
z
" transform="scale(0.015625)"/>
       <path id="DejaVuSans-4f" d="M 2522 4238 
Q 1834 4238 1429 3725 
Q 1025 3213 1025 2328 
Q 1025 1447 1429 934 
Q 1834 422 2522 422 
Q 3209 422 3611 934 
Q 4013 1447 4013 2328 
Q 4013 3213 3611 3725 
Q 3209 4238 2522 4238 
z
M 2522 4750 
Q 3503 4750 4090 4092 
Q 4678 3434 4678 2328 
Q 4678 1225 4090 567 
Q 3503 -91 2522 -91 
Q 1538 -91 948 565 
Q 359 1222 359 2328 
Q 359 3434 948 4092 
Q 1538 4750 2522 4750 
z
" transform="scale(0.015625)"/>
       <path id="DejaVuSans-3d" d="M 678 2906 
L 4684 2906 
L 4684 2381 
L 678 2381 
L 678 2906 
z
M 678 1631 
L 4684 1631 
L 4684 1100 
L 678 1100 
L 678 1631 
z
" transform="scale(0.015625)"/>
       <path id="DejaVuSans-2f" d="M 1625 4666 
L 2156 4666 
L 531 -594 
L 0 -594 
L 1625 4666 
z
" transform="scale(0.015625)"/>
       <path id="DejaVuSans-6b" d="M 581 4863 
L 1159 4863 
L 1159 1991 
L 2875 3500 
L 3609 3500 
L 1753 1863 
L 3688 0 
L 2938 0 
L 1159 1709 
L 1159 0 
L 581 0 
L 581 4863 
z
" transform="scale(0.015625)"/>
      </defs>
      <use xlink:href="#DejaVuSans-70"/>
      <use xlink:href="#DejaVuSans-75" x="63.476562"/>
      <use xlink:href="#DejaVuSans-72" x="126.855469"/>
      <use xlink:href="#DejaVuSans-65" x="165.71875"/>
      <use xlink:href="#DejaVuSans-20" x="227.242188"/>
      <use xlink:href="#DejaVuSans-4e" x="259.029297"/>
      <use xlink:href="#DejaVuSans-61" x="333.833984"/>
      <use xlink:href="#DejaVuSans-4f" x="395.113281"/>
      <use xlink:href="#DejaVuSans-48" x="473.824219"/>
      <use xlink:href="#DejaVuSans-3d" x="549.019531"/>
      <use xlink:href="#DejaVuSans-31" x="632.808594"/>
      <use xlink:href="#DejaVuSans-30" x="696.431641"/>
      <use xlink:href="#DejaVuSans-20" x="760.054688"/>
      <use xlink:href="#DejaVuSans-6d" x="791.841797"/>
      <use xlink:href="#DejaVuSans-6d" x="889.253906"/>
      <use xlink:href="#DejaVuSans-6f" x="986.666016"/>
      <use xlink:href="#DejaVuSans-6c" x="1047.847656"/>
      <use xlink:href="#DejaVuSans-2f" x="1075.630859"/>
      <use xlink:href="#DejaVuSans-6b" x="1109.322266"/>
      <use xlink:href="#DejaVuSans-67" x="1167.232422"/>
      <use xlink:href="#DejaVuSans-20" x="1230.708984"/>
      <use xlink:href="#DejaVuSans-73" x="1262.496094"/>
      <use xlink:href="#DejaVuSans-6f" x="1314.595703"/>
      <use xlink:href="#DejaVuSans-6c" x="1375.777344"/>
      <use xlink:href="#DejaVuSans-75" x="1403.560547"/>
      <use xlink:href="#DejaVuSans-74" x="1466.939453"/>
      <use xlink:href="#DejaVuSans-69" x="1506.148438"/>
      <use xlink:href="#DejaVuSans-6f" x="1533.931641"/>
      <use xlink:href="#DejaVuSans-6e" x="1595.113281"/>
     </g>
    </g>
    <g id="line2d_20">
     <path d="M 475.9425 127.757812 
L 493.9425 127.757812 
L 511.9425 127.757812 
" style="fill: none; stroke: #ff7f0e; stroke-width: 4; stroke-linecap: square"/>
    </g>
    <g id="text_18">
     <!--  same NaOH=10 mmol/kg solution in atm equilibrium -->
     <g transform="translate(526.3425 134.057812) scale(0.18 -0.18)">
      <defs>
       <path id="DejaVuSans-71" d="M 947 1747 
Q 947 1113 1208 752 
Q 1469 391 1925 391 
Q 2381 391 2643 752 
Q 2906 1113 2906 1747 
Q 2906 2381 2643 2742 
Q 2381 3103 1925 3103 
Q 1469 3103 1208 2742 
Q 947 2381 947 1747 
z
M 2906 525 
Q 2725 213 2448 61 
Q 2172 -91 1784 -91 
Q 1150 -91 751 415 
Q 353 922 353 1747 
Q 353 2572 751 3078 
Q 1150 3584 1784 3584 
Q 2172 3584 2448 3432 
Q 2725 3281 2906 2969 
L 2906 3500 
L 3481 3500 
L 3481 -1331 
L 2906 -1331 
L 2906 525 
z
" transform="scale(0.015625)"/>
       <path id="DejaVuSans-62" d="M 3116 1747 
Q 3116 2381 2855 2742 
Q 2594 3103 2138 3103 
Q 1681 3103 1420 2742 
Q 1159 2381 1159 1747 
Q 1159 1113 1420 752 
Q 1681 391 2138 391 
Q 2594 391 2855 752 
Q 3116 1113 3116 1747 
z
M 1159 2969 
Q 1341 3281 1617 3432 
Q 1894 3584 2278 3584 
Q 2916 3584 3314 3078 
Q 3713 2572 3713 1747 
Q 3713 922 3314 415 
Q 2916 -91 2278 -91 
Q 1894 -91 1617 61 
Q 1341 213 1159 525 
L 1159 0 
L 581 0 
L 581 4863 
L 1159 4863 
L 1159 2969 
z
" transform="scale(0.015625)"/>
      </defs>
      <use xlink:href="#DejaVuSans-20"/>
      <use xlink:href="#DejaVuSans-73" x="31.787109"/>
      <use xlink:href="#DejaVuSans-61" x="83.886719"/>
      <use xlink:href="#DejaVuSans-6d" x="145.166016"/>
      <use xlink:href="#DejaVuSans-65" x="242.578125"/>
      <use xlink:href="#DejaVuSans-20" x="304.101562"/>
      <use xlink:href="#DejaVuSans-4e" x="335.888672"/>
      <use xlink:href="#DejaVuSans-61" x="410.693359"/>
      <use xlink:href="#DejaVuSans-4f" x="471.972656"/>
      <use xlink:href="#DejaVuSans-48" x="550.683594"/>
      <use xlink:href="#DejaVuSans-3d" x="625.878906"/>
      <use xlink:href="#DejaVuSans-31" x="709.667969"/>
      <use xlink:href="#DejaVuSans-30" x="773.291016"/>
      <use xlink:href="#DejaVuSans-20" x="836.914062"/>
      <use xlink:href="#DejaVuSans-6d" x="868.701172"/>
      <use xlink:href="#DejaVuSans-6d" x="966.113281"/>
      <use xlink:href="#DejaVuSans-6f" x="1063.525391"/>
      <use xlink:href="#DejaVuSans-6c" x="1124.707031"/>
      <use xlink:href="#DejaVuSans-2f" x="1152.490234"/>
      <use xlink:href="#DejaVuSans-6b" x="1186.181641"/>
      <use xlink:href="#DejaVuSans-67" x="1244.091797"/>
      <use xlink:href="#DejaVuSans-20" x="1307.568359"/>
      <use xlink:href="#DejaVuSans-73" x="1339.355469"/>
      <use xlink:href="#DejaVuSans-6f" x="1391.455078"/>
      <use xlink:href="#DejaVuSans-6c" x="1452.636719"/>
      <use xlink:href="#DejaVuSans-75" x="1480.419922"/>
      <use xlink:href="#DejaVuSans-74" x="1543.798828"/>
      <use xlink:href="#DejaVuSans-69" x="1583.007812"/>
      <use xlink:href="#DejaVuSans-6f" x="1610.791016"/>
      <use xlink:href="#DejaVuSans-6e" x="1671.972656"/>
      <use xlink:href="#DejaVuSans-20" x="1735.351562"/>
      <use xlink:href="#DejaVuSans-69" x="1767.138672"/>
      <use xlink:href="#DejaVuSans-6e" x="1794.921875"/>
      <use xlink:href="#DejaVuSans-20" x="1858.300781"/>
      <use xlink:href="#DejaVuSans-61" x="1890.087891"/>
      <use xlink:href="#DejaVuSans-74" x="1951.367188"/>
      <use xlink:href="#DejaVuSans-6d" x="1990.576172"/>
      <use xlink:href="#DejaVuSans-20" x="2087.988281"/>
      <use xlink:href="#DejaVuSans-65" x="2119.775391"/>
      <use xlink:href="#DejaVuSans-71" x="2181.298828"/>
      <use xlink:href="#DejaVuSans-75" x="2244.775391"/>
      <use xlink:href="#DejaVuSans-69" x="2308.154297"/>
      <use xlink:href="#DejaVuSans-6c" x="2335.9375"/>
      <use xlink:href="#DejaVuSans-69" x="2363.720703"/>
      <use xlink:href="#DejaVuSans-62" x="2391.503906"/>
      <use xlink:href="#DejaVuSans-72" x="2454.980469"/>
      <use xlink:href="#DejaVuSans-69" x="2496.09375"/>
      <use xlink:href="#DejaVuSans-75" x="2523.876953"/>
      <use xlink:href="#DejaVuSans-6d" x="2587.255859"/>
     </g>
    </g>
    <g id="line2d_21">
     <path d="M 475.9425 166.128187 
L 493.9425 166.128187 
L 511.9425 166.128187 
" style="fill: none; stroke: #2ca02c; stroke-width: 4; stroke-linecap: square"/>
    </g>
    <g id="text_19">
     <!-- NaOH=13 mmol/l solution+  -->
     <g transform="translate(526.3425 160.478437) scale(0.18 -0.18)">
      <defs>
       <path id="DejaVuSans-2b" d="M 2944 4013 
L 2944 2272 
L 4684 2272 
L 4684 1741 
L 2944 1741 
L 2944 0 
L 2419 0 
L 2419 1741 
L 678 1741 
L 678 2272 
L 2419 2272 
L 2419 4013 
L 2944 4013 
z
" transform="scale(0.015625)"/>
      </defs>
      <use xlink:href="#DejaVuSans-4e"/>
      <use xlink:href="#DejaVuSans-61" x="74.804688"/>
      <use xlink:href="#DejaVuSans-4f" x="136.083984"/>
      <use xlink:href="#DejaVuSans-48" x="214.794922"/>
      <use xlink:href="#DejaVuSans-3d" x="289.990234"/>
      <use xlink:href="#DejaVuSans-31" x="373.779297"/>
      <use xlink:href="#DejaVuSans-33" x="437.402344"/>
      <use xlink:href="#DejaVuSans-20" x="501.025391"/>
      <use xlink:href="#DejaVuSans-6d" x="532.8125"/>
      <use xlink:href="#DejaVuSans-6d" x="630.224609"/>
      <use xlink:href="#DejaVuSans-6f" x="727.636719"/>
      <use xlink:href="#DejaVuSans-6c" x="788.818359"/>
      <use xlink:href="#DejaVuSans-2f" x="816.601562"/>
      <use xlink:href="#DejaVuSans-6c" x="850.292969"/>
      <use xlink:href="#DejaVuSans-20" x="878.076172"/>
      <use xlink:href="#DejaVuSans-73" x="909.863281"/>
      <use xlink:href="#DejaVuSans-6f" x="961.962891"/>
      <use xlink:href="#DejaVuSans-6c" x="1023.144531"/>
      <use xlink:href="#DejaVuSans-75" x="1050.927734"/>
      <use xlink:href="#DejaVuSans-74" x="1114.306641"/>
      <use xlink:href="#DejaVuSans-69" x="1153.515625"/>
      <use xlink:href="#DejaVuSans-6f" x="1181.298828"/>
      <use xlink:href="#DejaVuSans-6e" x="1242.480469"/>
      <use xlink:href="#DejaVuSans-2b" x="1305.859375"/>
      <use xlink:href="#DejaVuSans-20" x="1389.648438"/>
     </g>
     <!--  citric acid H3(Citrate)=3 mmol/kg + atm equilibrium -->
     <g transform="translate(526.3425 180.6345) scale(0.18 -0.18)">
      <defs>
       <path id="DejaVuSans-28" d="M 1984 4856 
Q 1566 4138 1362 3434 
Q 1159 2731 1159 2009 
Q 1159 1288 1364 580 
Q 1569 -128 1984 -844 
L 1484 -844 
Q 1016 -109 783 600 
Q 550 1309 550 2009 
Q 550 2706 781 3412 
Q 1013 4119 1484 4856 
L 1984 4856 
z
" transform="scale(0.015625)"/>
       <path id="DejaVuSans-43" d="M 4122 4306 
L 4122 3641 
Q 3803 3938 3442 4084 
Q 3081 4231 2675 4231 
Q 1875 4231 1450 3742 
Q 1025 3253 1025 2328 
Q 1025 1406 1450 917 
Q 1875 428 2675 428 
Q 3081 428 3442 575 
Q 3803 722 4122 1019 
L 4122 359 
Q 3791 134 3420 21 
Q 3050 -91 2638 -91 
Q 1578 -91 968 557 
Q 359 1206 359 2328 
Q 359 3453 968 4101 
Q 1578 4750 2638 4750 
Q 3056 4750 3426 4639 
Q 3797 4528 4122 4306 
z
" transform="scale(0.015625)"/>
       <path id="DejaVuSans-29" d="M 513 4856 
L 1013 4856 
Q 1481 4119 1714 3412 
Q 1947 2706 1947 2009 
Q 1947 1309 1714 600 
Q 1481 -109 1013 -844 
L 513 -844 
Q 928 -128 1133 580 
Q 1338 1288 1338 2009 
Q 1338 2731 1133 3434 
Q 928 4138 513 4856 
z
" transform="scale(0.015625)"/>
      </defs>
      <use xlink:href="#DejaVuSans-20"/>
      <use xlink:href="#DejaVuSans-63" x="31.787109"/>
      <use xlink:href="#DejaVuSans-69" x="86.767578"/>
      <use xlink:href="#DejaVuSans-74" x="114.550781"/>
      <use xlink:href="#DejaVuSans-72" x="153.759766"/>
      <use xlink:href="#DejaVuSans-69" x="194.873047"/>
      <use xlink:href="#DejaVuSans-63" x="222.65625"/>
      <use xlink:href="#DejaVuSans-20" x="277.636719"/>
      <use xlink:href="#DejaVuSans-61" x="309.423828"/>
      <use xlink:href="#DejaVuSans-63" x="370.703125"/>
      <use xlink:href="#DejaVuSans-69" x="425.683594"/>
      <use xlink:href="#DejaVuSans-64" x="453.466797"/>
      <use xlink:href="#DejaVuSans-20" x="516.943359"/>
      <use xlink:href="#DejaVuSans-48" x="548.730469"/>
      <use xlink:href="#DejaVuSans-33" x="623.925781"/>
      <use xlink:href="#DejaVuSans-28" x="687.548828"/>
      <use xlink:href="#DejaVuSans-43" x="726.5625"/>
      <use xlink:href="#DejaVuSans-69" x="796.386719"/>
      <use xlink:href="#DejaVuSans-74" x="824.169922"/>
      <use xlink:href="#DejaVuSans-72" x="863.378906"/>
      <use xlink:href="#DejaVuSans-61" x="904.492188"/>
      <use xlink:href="#DejaVuSans-74" x="965.771484"/>
      <use xlink:href="#DejaVuSans-65" x="1004.980469"/>
      <use xlink:href="#DejaVuSans-29" x="1066.503906"/>
      <use xlink:href="#DejaVuSans-3d" x="1105.517578"/>
      <use xlink:href="#DejaVuSans-33" x="1189.306641"/>
      <use xlink:href="#DejaVuSans-20" x="1252.929688"/>
      <use xlink:href="#DejaVuSans-6d" x="1284.716797"/>
      <use xlink:href="#DejaVuSans-6d" x="1382.128906"/>
      <use xlink:href="#DejaVuSans-6f" x="1479.541016"/>
      <use xlink:href="#DejaVuSans-6c" x="1540.722656"/>
      <use xlink:href="#DejaVuSans-2f" x="1568.505859"/>
      <use xlink:href="#DejaVuSans-6b" x="1602.197266"/>
      <use xlink:href="#DejaVuSans-67" x="1660.107422"/>
      <use xlink:href="#DejaVuSans-20" x="1723.583984"/>
      <use xlink:href="#DejaVuSans-2b" x="1755.371094"/>
      <use xlink:href="#DejaVuSans-20" x="1839.160156"/>
      <use xlink:href="#DejaVuSans-61" x="1870.947266"/>
      <use xlink:href="#DejaVuSans-74" x="1932.226562"/>
      <use xlink:href="#DejaVuSans-6d" x="1971.435547"/>
      <use xlink:href="#DejaVuSans-20" x="2068.847656"/>
      <use xlink:href="#DejaVuSans-65" x="2100.634766"/>
      <use xlink:href="#DejaVuSans-71" x="2162.158203"/>
      <use xlink:href="#DejaVuSans-75" x="2225.634766"/>
      <use xlink:href="#DejaVuSans-69" x="2289.013672"/>
      <use xlink:href="#DejaVuSans-6c" x="2316.796875"/>
      <use xlink:href="#DejaVuSans-69" x="2344.580078"/>
      <use xlink:href="#DejaVuSans-62" x="2372.363281"/>
      <use xlink:href="#DejaVuSans-72" x="2435.839844"/>
      <use xlink:href="#DejaVuSans-69" x="2476.953125"/>
      <use xlink:href="#DejaVuSans-75" x="2504.736328"/>
      <use xlink:href="#DejaVuSans-6d" x="2568.115234"/>
     </g>
    </g>
    <g id="line2d_22">
     <path d="M 475.9425 212.704875 
L 493.9425 212.704875 
L 511.9425 212.704875 
" style="fill: none; stroke: #d62728; stroke-width: 4; stroke-linecap: square"/>
    </g>
    <g id="text_20">
     <!-- NaOH=13 mmol/l solution+  -->
     <g transform="translate(526.3425 207.055125) scale(0.18 -0.18)">
      <use xlink:href="#DejaVuSans-4e"/>
      <use xlink:href="#DejaVuSans-61" x="74.804688"/>
      <use xlink:href="#DejaVuSans-4f" x="136.083984"/>
      <use xlink:href="#DejaVuSans-48" x="214.794922"/>
      <use xlink:href="#DejaVuSans-3d" x="289.990234"/>
      <use xlink:href="#DejaVuSans-31" x="373.779297"/>
      <use xlink:href="#DejaVuSans-33" x="437.402344"/>
      <use xlink:href="#DejaVuSans-20" x="501.025391"/>
      <use xlink:href="#DejaVuSans-6d" x="532.8125"/>
      <use xlink:href="#DejaVuSans-6d" x="630.224609"/>
      <use xlink:href="#DejaVuSans-6f" x="727.636719"/>
      <use xlink:href="#DejaVuSans-6c" x="788.818359"/>
      <use xlink:href="#DejaVuSans-2f" x="816.601562"/>
      <use xlink:href="#DejaVuSans-6c" x="850.292969"/>
      <use xlink:href="#DejaVuSans-20" x="878.076172"/>
      <use xlink:href="#DejaVuSans-73" x="909.863281"/>
      <use xlink:href="#DejaVuSans-6f" x="961.962891"/>
      <use xlink:href="#DejaVuSans-6c" x="1023.144531"/>
      <use xlink:href="#DejaVuSans-75" x="1050.927734"/>
      <use xlink:href="#DejaVuSans-74" x="1114.306641"/>
      <use xlink:href="#DejaVuSans-69" x="1153.515625"/>
      <use xlink:href="#DejaVuSans-6f" x="1181.298828"/>
      <use xlink:href="#DejaVuSans-6e" x="1242.480469"/>
      <use xlink:href="#DejaVuSans-2b" x="1305.859375"/>
      <use xlink:href="#DejaVuSans-20" x="1389.648438"/>
     </g>
     <!--  acetic acid H(Acetate)=3 mmol/kg + atm equilibrium -->
     <g transform="translate(526.3425 227.211187) scale(0.18 -0.18)">
      <defs>
       <path id="DejaVuSans-41" d="M 2188 4044 
L 1331 1722 
L 3047 1722 
L 2188 4044 
z
M 1831 4666 
L 2547 4666 
L 4325 0 
L 3669 0 
L 3244 1197 
L 1141 1197 
L 716 0 
L 50 0 
L 1831 4666 
z
" transform="scale(0.015625)"/>
      </defs>
      <use xlink:href="#DejaVuSans-20"/>
      <use xlink:href="#DejaVuSans-61" x="31.787109"/>
      <use xlink:href="#DejaVuSans-63" x="93.066406"/>
      <use xlink:href="#DejaVuSans-65" x="148.046875"/>
      <use xlink:href="#DejaVuSans-74" x="209.570312"/>
      <use xlink:href="#DejaVuSans-69" x="248.779297"/>
      <use xlink:href="#DejaVuSans-63" x="276.5625"/>
      <use xlink:href="#DejaVuSans-20" x="331.542969"/>
      <use xlink:href="#DejaVuSans-61" x="363.330078"/>
      <use xlink:href="#DejaVuSans-63" x="424.609375"/>
      <use xlink:href="#DejaVuSans-69" x="479.589844"/>
      <use xlink:href="#DejaVuSans-64" x="507.373047"/>
      <use xlink:href="#DejaVuSans-20" x="570.849609"/>
      <use xlink:href="#DejaVuSans-48" x="602.636719"/>
      <use xlink:href="#DejaVuSans-28" x="677.832031"/>
      <use xlink:href="#DejaVuSans-41" x="716.845703"/>
      <use xlink:href="#DejaVuSans-63" x="783.503906"/>
      <use xlink:href="#DejaVuSans-65" x="838.484375"/>
      <use xlink:href="#DejaVuSans-74" x="900.007812"/>
      <use xlink:href="#DejaVuSans-61" x="939.216797"/>
      <use xlink:href="#DejaVuSans-74" x="1000.496094"/>
      <use xlink:href="#DejaVuSans-65" x="1039.705078"/>
      <use xlink:href="#DejaVuSans-29" x="1101.228516"/>
      <use xlink:href="#DejaVuSans-3d" x="1140.242188"/>
      <use xlink:href="#DejaVuSans-33" x="1224.03125"/>
      <use xlink:href="#DejaVuSans-20" x="1287.654297"/>
      <use xlink:href="#DejaVuSans-6d" x="1319.441406"/>
      <use xlink:href="#DejaVuSans-6d" x="1416.853516"/>
      <use xlink:href="#DejaVuSans-6f" x="1514.265625"/>
      <use xlink:href="#DejaVuSans-6c" x="1575.447266"/>
      <use xlink:href="#DejaVuSans-2f" x="1603.230469"/>
      <use xlink:href="#DejaVuSans-6b" x="1636.921875"/>
      <use xlink:href="#DejaVuSans-67" x="1694.832031"/>
      <use xlink:href="#DejaVuSans-20" x="1758.308594"/>
      <use xlink:href="#DejaVuSans-2b" x="1790.095703"/>
      <use xlink:href="#DejaVuSans-20" x="1873.884766"/>
      <use xlink:href="#DejaVuSans-61" x="1905.671875"/>
      <use xlink:href="#DejaVuSans-74" x="1966.951172"/>
      <use xlink:href="#DejaVuSans-6d" x="2006.160156"/>
      <use xlink:href="#DejaVuSans-20" x="2103.572266"/>
      <use xlink:href="#DejaVuSans-65" x="2135.359375"/>
      <use xlink:href="#DejaVuSans-71" x="2196.882812"/>
      <use xlink:href="#DejaVuSans-75" x="2260.359375"/>
      <use xlink:href="#DejaVuSans-69" x="2323.738281"/>
      <use xlink:href="#DejaVuSans-6c" x="2351.521484"/>
      <use xlink:href="#DejaVuSans-69" x="2379.304688"/>
      <use xlink:href="#DejaVuSans-62" x="2407.087891"/>
      <use xlink:href="#DejaVuSans-72" x="2470.564453"/>
      <use xlink:href="#DejaVuSans-69" x="2511.677734"/>
      <use xlink:href="#DejaVuSans-75" x="2539.460938"/>
      <use xlink:href="#DejaVuSans-6d" x="2602.839844"/>
     </g>
    </g>
    <g id="line2d_23">
     <path d="M 475.9425 259.281562 
L 493.9425 259.281562 
L 511.9425 259.281562 
" style="fill: none; stroke: #9467bd; stroke-width: 4; stroke-linecap: square"/>
    </g>
    <g id="text_21">
     <!-- NaOH=13 mmol/l solution+  -->
     <g transform="translate(526.3425 253.631812) scale(0.18 -0.18)">
      <use xlink:href="#DejaVuSans-4e"/>
      <use xlink:href="#DejaVuSans-61" x="74.804688"/>
      <use xlink:href="#DejaVuSans-4f" x="136.083984"/>
      <use xlink:href="#DejaVuSans-48" x="214.794922"/>
      <use xlink:href="#DejaVuSans-3d" x="289.990234"/>
      <use xlink:href="#DejaVuSans-31" x="373.779297"/>
      <use xlink:href="#DejaVuSans-33" x="437.402344"/>
      <use xlink:href="#DejaVuSans-20" x="501.025391"/>
      <use xlink:href="#DejaVuSans-6d" x="532.8125"/>
      <use xlink:href="#DejaVuSans-6d" x="630.224609"/>
      <use xlink:href="#DejaVuSans-6f" x="727.636719"/>
      <use xlink:href="#DejaVuSans-6c" x="788.818359"/>
      <use xlink:href="#DejaVuSans-2f" x="816.601562"/>
      <use xlink:href="#DejaVuSans-6c" x="850.292969"/>
      <use xlink:href="#DejaVuSans-20" x="878.076172"/>
      <use xlink:href="#DejaVuSans-73" x="909.863281"/>
      <use xlink:href="#DejaVuSans-6f" x="961.962891"/>
      <use xlink:href="#DejaVuSans-6c" x="1023.144531"/>
      <use xlink:href="#DejaVuSans-75" x="1050.927734"/>
      <use xlink:href="#DejaVuSans-74" x="1114.306641"/>
      <use xlink:href="#DejaVuSans-69" x="1153.515625"/>
      <use xlink:href="#DejaVuSans-6f" x="1181.298828"/>
      <use xlink:href="#DejaVuSans-6e" x="1242.480469"/>
      <use xlink:href="#DejaVuSans-2b" x="1305.859375"/>
      <use xlink:href="#DejaVuSans-20" x="1389.648438"/>
     </g>
     <!--  formic acid H(Formate)=3 mmol/kg + atm equilibrium -->
     <g transform="translate(526.3425 273.787875) scale(0.18 -0.18)">
      <defs>
       <path id="DejaVuSans-46" d="M 628 4666 
L 3309 4666 
L 3309 4134 
L 1259 4134 
L 1259 2759 
L 3109 2759 
L 3109 2228 
L 1259 2228 
L 1259 0 
L 628 0 
L 628 4666 
z
" transform="scale(0.015625)"/>
      </defs>
      <use xlink:href="#DejaVuSans-20"/>
      <use xlink:href="#DejaVuSans-66" x="31.787109"/>
      <use xlink:href="#DejaVuSans-6f" x="66.992188"/>
      <use xlink:href="#DejaVuSans-72" x="128.173828"/>
      <use xlink:href="#DejaVuSans-6d" x="167.537109"/>
      <use xlink:href="#DejaVuSans-69" x="264.949219"/>
      <use xlink:href="#DejaVuSans-63" x="292.732422"/>
      <use xlink:href="#DejaVuSans-20" x="347.712891"/>
      <use xlink:href="#DejaVuSans-61" x="379.5"/>
      <use xlink:href="#DejaVuSans-63" x="440.779297"/>
      <use xlink:href="#DejaVuSans-69" x="495.759766"/>
      <use xlink:href="#DejaVuSans-64" x="523.542969"/>
      <use xlink:href="#DejaVuSans-20" x="587.019531"/>
      <use xlink:href="#DejaVuSans-48" x="618.806641"/>
      <use xlink:href="#DejaVuSans-28" x="694.001953"/>
      <use xlink:href="#DejaVuSans-46" x="733.015625"/>
      <use xlink:href="#DejaVuSans-6f" x="786.910156"/>
      <use xlink:href="#DejaVuSans-72" x="848.091797"/>
      <use xlink:href="#DejaVuSans-6d" x="887.455078"/>
      <use xlink:href="#DejaVuSans-61" x="984.867188"/>
      <use xlink:href="#DejaVuSans-74" x="1046.146484"/>
      <use xlink:href="#DejaVuSans-65" x="1085.355469"/>
      <use xlink:href="#DejaVuSans-29" x="1146.878906"/>
      <use xlink:href="#DejaVuSans-3d" x="1185.892578"/>
      <use xlink:href="#DejaVuSans-33" x="1269.681641"/>
      <use xlink:href="#DejaVuSans-20" x="1333.304688"/>
      <use xlink:href="#DejaVuSans-6d" x="1365.091797"/>
      <use xlink:href="#DejaVuSans-6d" x="1462.503906"/>
      <use xlink:href="#DejaVuSans-6f" x="1559.916016"/>
      <use xlink:href="#DejaVuSans-6c" x="1621.097656"/>
      <use xlink:href="#DejaVuSans-2f" x="1648.880859"/>
      <use xlink:href="#DejaVuSans-6b" x="1682.572266"/>
      <use xlink:href="#DejaVuSans-67" x="1740.482422"/>
      <use xlink:href="#DejaVuSans-20" x="1803.958984"/>
      <use xlink:href="#DejaVuSans-2b" x="1835.746094"/>
      <use xlink:href="#DejaVuSans-20" x="1919.535156"/>
      <use xlink:href="#DejaVuSans-61" x="1951.322266"/>
      <use xlink:href="#DejaVuSans-74" x="2012.601562"/>
      <use xlink:href="#DejaVuSans-6d" x="2051.810547"/>
      <use xlink:href="#DejaVuSans-20" x="2149.222656"/>
      <use xlink:href="#DejaVuSans-65" x="2181.009766"/>
      <use xlink:href="#DejaVuSans-71" x="2242.533203"/>
      <use xlink:href="#DejaVuSans-75" x="2306.009766"/>
      <use xlink:href="#DejaVuSans-69" x="2369.388672"/>
      <use xlink:href="#DejaVuSans-6c" x="2397.171875"/>
      <use xlink:href="#DejaVuSans-69" x="2424.955078"/>
      <use xlink:href="#DejaVuSans-62" x="2452.738281"/>
      <use xlink:href="#DejaVuSans-72" x="2516.214844"/>
      <use xlink:href="#DejaVuSans-69" x="2557.328125"/>
      <use xlink:href="#DejaVuSans-75" x="2585.111328"/>
      <use xlink:href="#DejaVuSans-6d" x="2648.490234"/>
     </g>
    </g>
   </g>
  </g>
 </g>
 <defs>
  <clipPath id="p405dcd868c">
   <rect x="144" y="77.76" width="892.8" height="498.96"/>
  </clipPath>
 </defs>
</svg>
